<svg width="296" height="352" viewBox="0 0 296 352" fill="none" xmlns="http://www.w3.org/2000/svg">
<g clip-path="url(#clip0_25_36)">
<path d="M282.472 193.088L139.295 228.432L0 192.841V351.25L139.295 315.753L282.472 350.974V193.088Z" fill="#C10C1A"/>
<path d="M226.071 306.555L215.377 304.668C214.986 304.601 214.69 304.258 214.69 303.858V277.741C214.69 277.302 215.033 276.94 215.472 276.921L223.371 276.549C223.81 276.53 224.154 276.168 224.154 275.729V264.491C224.154 264.024 223.763 263.653 223.295 263.672L215.587 264.005C215.119 264.024 214.728 263.653 214.728 263.185V241.291C214.728 240.891 215.014 240.547 215.405 240.481L226.176 238.631C226.567 238.565 226.854 238.222 226.854 237.821V225.649C226.854 225.125 226.367 224.734 225.861 224.848C222.313 225.63 209.328 228.442 203.662 229.691C203.29 229.776 203.022 230.1 203.022 230.491L203.061 314.562C203.061 314.943 203.328 315.277 203.7 315.363L225.756 320.319C226.272 320.434 226.749 320.043 226.749 319.519V307.337C226.749 306.937 226.453 306.593 226.062 306.527L226.071 306.555Z" fill="white"/>
<path d="M125.643 269.944C125.452 269.915 125.3 269.772 125.252 269.591L125.033 268.685L118.459 240.185C118.393 239.89 118.173 239.661 117.877 239.575L110.465 237.936C109.95 237.821 109.473 238.212 109.473 238.736V303.238C109.473 303.896 109.501 305.259 109.501 305.259V306.298C109.501 306.822 109.988 307.203 110.493 307.099L117.505 305.574C117.877 305.488 118.145 305.164 118.145 304.773V271.03C118.145 270.811 118.345 270.639 118.555 270.668L118.927 270.716C119.07 270.735 119.194 270.84 119.232 270.982L126.988 302.714C127.093 303.143 127.522 303.41 127.961 303.314L134.105 301.961C134.477 301.875 134.744 301.551 134.744 301.16V299.921L134.754 243.903C134.754 243.521 134.487 243.188 134.105 243.102L127.751 241.72C127.246 241.605 126.759 241.996 126.759 242.52L126.712 269.553C126.712 269.839 126.454 270.067 126.168 270.02L125.653 269.944H125.643Z" fill="white"/>
<path d="M160.626 306.041C166.178 307.28 169.241 302.561 169.241 296.871V271.745C169.241 271.297 168.878 270.925 168.43 270.925H157.468C157.02 270.916 156.648 271.278 156.648 271.726V280.981C156.648 281.41 156.982 281.773 157.411 281.801L159.548 281.944L159.443 293.316C159.443 294.269 158.604 295.012 157.659 294.907L153.719 294.545C152.546 294.383 151.649 293.42 151.592 292.238C151.573 291.848 151.553 291.39 151.525 290.847C151.506 290.418 151.506 289.998 151.506 289.57C151.506 277.845 151.506 254.492 151.506 254.492V252.176C151.506 249.984 154.225 249.564 154.225 249.564L156.696 249.269C157.85 249.116 158.88 250.012 158.88 251.185V252.7L158.938 259.363V260.116C158.957 260.574 159.338 260.936 159.796 260.917L167.962 260.64C168.401 260.621 168.754 260.259 168.754 259.821L168.621 248.44C168.621 242.111 165.883 238.241 160.95 239.375L156.276 240.414C156.276 240.414 151.42 241.377 147.766 242.235C141.956 243.598 141.851 246.266 141.708 252.214V271.516L141.67 293.363C141.66 298.653 142.996 302.161 148.138 303.41L160.617 306.041H160.626Z" fill="white"/>
<path d="M177.408 309.625L196.469 313.828C196.965 313.942 197.442 313.561 197.442 313.046L197.413 302.275C197.413 301.885 197.127 301.542 196.736 301.484L188.398 300.188C188.007 300.131 187.72 299.788 187.72 299.397V234.275C187.72 233.77 187.253 233.389 186.757 233.494L177.398 235.476C177.026 235.553 176.759 235.877 176.759 236.258L176.778 308.833C176.778 309.205 177.035 309.539 177.408 309.615V309.625Z" fill="white"/>
<path d="M91.5566 307.28C91.5566 307.985 91.5566 309.405 91.5566 309.405V310.206C91.5566 310.73 92.0432 311.121 92.5488 311.007L101.078 309.129C101.45 309.043 101.717 308.709 101.717 308.328V306.317C101.717 306.317 101.717 283.46 101.717 272.117C101.717 261.727 101.736 240.795 101.736 236.763C101.736 236.382 101.469 236.048 101.097 235.963L92.5583 234.066C92.0432 233.951 91.5662 234.342 91.5662 234.866V307.28H91.5566Z" fill="white"/>
<path d="M30.8242 220.454L17.6399 217.633C17.1342 217.528 16.6572 217.919 16.6572 218.434V326.553C16.6572 327.077 17.1342 327.468 17.6494 327.354L28.3343 324.99C28.7063 324.904 28.9735 324.58 28.9735 324.189V286.005C28.9735 285.576 29.3074 285.214 29.7367 285.185L34.4018 284.909C42.4441 284.413 48.7405 277.788 48.8073 269.734L48.855 263.519V246.924L48.9027 237.65C48.9409 229.977 43.627 223.314 36.1381 221.636L30.8242 220.454ZM31.8546 233.236C35.5084 234.028 38.1319 237.049 38.1701 240.776C38.2178 245.075 38.2846 250.546 38.2941 252.834L38.2655 267.141C38.2369 270.258 35.9282 273.165 32.3984 273.165L29.8321 273.299C29.3646 273.327 28.9735 272.956 28.9735 272.489C28.9735 269.248 28.9735 257.686 28.9735 252.634C28.9735 247.763 28.9735 236.963 28.9735 233.618C28.9735 233.093 29.4505 232.712 29.9656 232.827L31.8546 233.236Z" fill="white"/>
<path d="M83.5618 240.833C83.5618 234.866 81.3008 231.711 75.5481 230.358L55.8574 226.03C55.3518 225.916 54.8652 226.307 54.8652 226.831L54.8843 318.127C54.8843 318.651 55.3613 319.032 55.8765 318.928L65.0827 316.945C65.4643 316.869 65.7314 316.535 65.7314 316.144L65.6741 277.731C65.6741 277.283 66.0271 276.921 66.4755 276.911C67.1242 276.911 68.2404 276.902 70.1007 276.911C72.1423 276.93 73.4779 278.646 73.6401 280.514C73.8023 282.335 73.6306 283.85 73.6401 285.557C73.7069 293.449 73.6019 300.779 73.7641 308.662L73.9359 313.99C73.9549 314.505 74.4319 314.877 74.9376 314.762L83.3424 312.942C83.7144 312.856 83.9816 312.532 83.9816 312.15L84.0006 303.381C84.0006 303.381 84.0674 289.112 84.0197 281.973C83.9911 277.445 83.1802 273.251 78.1621 270.982C82.7604 268.838 83.5045 265.092 83.5618 260.793V240.824V240.833ZM73.4493 262.451C73.4111 263.538 73.2871 264.434 73.144 265.139C72.8387 266.607 71.5413 267.665 70.0435 267.675H66.5137C66.0653 267.694 65.6932 267.322 65.6932 266.874C65.6932 264.396 65.6932 257.009 65.6932 253.73C65.6932 250.613 65.6932 243.197 65.6932 240.423C65.6932 239.88 66.2084 239.499 66.7331 239.642L69.6333 240.443C71.818 241.053 73.3539 242.988 73.4493 245.247C73.6592 250.804 73.6783 256.894 73.4684 262.451H73.4493Z" fill="white"/>
<path d="M265.997 298.348C265.997 298.73 265.997 309.32 265.997 309.691C265.997 324.828 262.992 329.622 248.739 326.296C238.092 323.817 232.502 322.597 232.502 305.907V286.739C232.502 285.442 233.389 285.318 237.377 285.395C241.384 285.471 244.026 285.499 244.026 286.662V304.725C244.026 311.445 245.209 311.922 248.625 312.541C251.439 313.056 253.061 312.303 253.175 308.462C253.147 305.983 253.175 299.016 253.175 296.976C253.175 279.228 232.636 271.125 232.636 245.818C232.636 245.027 232.655 238.813 232.655 238.069C232.655 223.724 237.1 221.284 248.711 218.91C260.588 216.479 265.644 216.289 265.644 231.33V253.692C265.644 254.721 263.832 254.607 260.273 254.674C256.324 254.75 253.91 254.797 253.91 253.768V237.202C253.91 233.189 252.46 231.492 249.693 231.997C246.65 232.55 245.133 233.541 245.057 237.268C245.009 239.461 245.057 244.36 245.057 246.247C245.057 264.472 266.016 270.849 266.016 298.358L265.997 298.348Z" fill="white"/>
<path d="M160.708 225.781C232.526 212.391 282.426 156.988 272.162 102.035C261.899 47.0823 195.359 13.3889 123.541 26.7787C51.723 40.1686 1.82294 95.5714 12.0862 150.524C22.3494 205.477 88.8895 239.171 160.708 225.781Z" fill="white"/>
<path d="M118.898 67.6305C120.052 76.1424 116.169 83.2627 110.235 83.4819C104.263 83.7202 98.1863 76.762 97.0606 68.1357C95.9063 59.5189 100.133 52.6083 106.095 52.4558C112.048 52.3224 117.753 59.1186 118.907 67.621L118.898 67.6305Z" fill="#1D1D1B"/>
<path d="M209.815 58.7373C210.435 66.2579 206.752 71.9961 201.544 71.5576C196.316 71.1192 191.326 64.4183 190.735 56.8119C190.134 49.2245 194.131 43.677 199.349 44.2013C204.549 44.7351 209.233 51.2262 209.824 58.7373H209.815Z" fill="#1D1D1B"/>
<path d="M247.823 81.3563C246.63 80.6605 245.619 81.5374 246.201 82.8147C248.825 88.4861 248.777 97.0266 240.095 97.0266C230.45 97.0266 217.676 84.7496 200.323 84.7496C188.026 84.7496 174.526 93.3283 173.305 112.068C165.139 99.6288 150.829 91.2122 133.38 91.2122C101.802 91.2122 79.2688 129.654 52.7569 129.654C41.2993 129.654 37.8935 119.312 40.393 111.668C40.7937 110.438 39.3817 109.428 38.38 110.209C29.2883 117.301 26.1592 129.568 26.1592 141.464C26.1592 173.481 58.7863 200.733 102.537 200.733C146.288 200.733 179.239 175.76 180.689 139.357C189.113 151.549 203.509 158.574 217.81 158.574C241.307 158.574 263.106 142.084 263.106 114.213C263.106 101.373 256.247 86.2366 247.832 81.3468L247.823 81.3563Z" fill="#1D1D1B"/>
<path d="M99.1405 0.840966C81.997 0.202334 67.0572 16.2444 65.8266 36.5853C65.7693 37.5862 65.7407 38.6251 65.7598 39.7689C65.7598 40.5029 66.3227 41.1129 67.0572 41.1987C67.1145 41.1987 67.1622 41.1987 67.2099 41.1987C67.8777 41.1987 68.4692 40.7412 68.6218 40.074C72.3997 23.6602 87.6161 12.222 104.75 12.8415C108.69 12.9845 112.525 13.7757 116.141 15.1768C117.229 15.5962 118.411 15.215 119.108 14.2237C119.89 13.0989 119.823 11.5643 118.936 10.5634C113.641 4.56791 106.61 1.11739 99.1405 0.840966Z" fill="#1D1D1B"/>
<path d="M218.459 25.0518C218.211 24.0414 217.982 23.2217 217.734 22.4496C214.852 13.4802 209.062 6.25505 201.83 2.63295C196.64 0.0212324 191.25 -0.445827 186.261 1.26037C181.157 3.00469 176.912 7.00806 174.307 12.5175C173.754 13.6899 174.069 15.072 175.061 15.8822C176.015 16.6543 177.312 16.6733 178.285 15.9394C180.336 14.3857 182.597 13.1847 185.002 12.3554C196.869 8.30439 209.796 14.0616 215.749 26.0431C215.997 26.5483 216.512 26.8533 217.047 26.8533C217.209 26.8533 217.381 26.8247 217.543 26.7675C218.239 26.5102 218.63 25.7762 218.449 25.0518H218.459Z" fill="#1D1D1B"/>
<path d="M290.199 339.402C291.192 339.402 292.146 339.65 293.061 340.145C293.977 340.641 294.693 341.356 295.217 342.281C295.742 343.205 296 344.177 296 345.197C296 346.217 295.742 347.17 295.227 348.085C294.712 349.001 293.996 349.715 293.08 350.23C292.165 350.745 291.201 351.002 290.19 351.002C289.179 351.002 288.215 350.745 287.299 350.23C286.383 349.715 285.668 349.001 285.153 348.085C284.637 347.17 284.38 346.208 284.38 345.197C284.38 344.187 284.647 343.215 285.162 342.281C285.687 341.356 286.402 340.641 287.318 340.145C288.234 339.65 289.188 339.402 290.18 339.402H290.199ZM290.199 340.536C289.398 340.536 288.635 340.736 287.91 341.137C287.175 341.537 286.603 342.109 286.183 342.852C285.763 343.596 285.553 344.378 285.553 345.197C285.553 346.017 285.754 346.78 286.173 347.523C286.593 348.267 287.156 348.838 287.891 349.248C288.625 349.658 289.398 349.868 290.209 349.868C291.02 349.868 291.793 349.658 292.527 349.248C293.262 348.838 293.834 348.257 294.244 347.523C294.655 346.789 294.864 346.017 294.864 345.197C294.864 344.378 294.655 343.596 294.235 342.852C293.815 342.109 293.233 341.537 292.498 341.137C291.764 340.736 291.001 340.536 290.199 340.536ZM287.576 348.295V342.147H288.826C289.999 342.147 290.657 342.147 290.791 342.166C291.211 342.204 291.525 342.281 291.754 342.414C291.983 342.538 292.174 342.738 292.327 343.005C292.479 343.272 292.556 343.567 292.556 343.882C292.556 344.33 292.413 344.702 292.117 345.016C291.831 345.331 291.42 345.531 290.896 345.598C291.087 345.664 291.23 345.741 291.325 345.826C291.42 345.912 291.564 346.065 291.745 346.303C291.793 346.36 291.945 346.618 292.203 347.056L292.928 348.295H291.382L290.867 347.294C290.514 346.627 290.228 346.198 290.009 346.027C289.78 345.855 289.493 345.769 289.15 345.769H288.826V348.295H287.576ZM288.826 344.797H289.331C290.056 344.797 290.505 344.768 290.676 344.711C290.848 344.654 290.991 344.559 291.087 344.416C291.182 344.273 291.239 344.12 291.239 343.939C291.239 343.758 291.192 343.615 291.096 343.482C291.001 343.348 290.858 343.253 290.676 343.196C290.495 343.138 290.047 343.11 289.341 343.11H288.835V344.787L288.826 344.797Z" fill="white"/>
</g>
<defs>
<clipPath id="clip0_25_36">
<rect width="296" height="351" fill="white" transform="translate(0 0.25)"/>
</clipPath>
</defs>
</svg>
