<svg width="299" height="284" viewBox="0 0 299 284" fill="none" xmlns="http://www.w3.org/2000/svg">
<g clip-path="url(#clip0_105_548)">
<path d="M222.403 36.9795C220.933 30.4013 213.981 25.2308 206.02 22.141C198.008 18.9765 189.026 17.3444 180.005 16.4723C175.483 16.0113 170.91 15.7995 166.338 15.6874C161.753 15.6126 157.156 15.6874 152.559 15.8618C147.961 16.0736 143.351 16.4349 138.754 16.8709C134.157 17.3319 129.584 17.9922 125.012 18.7024C115.892 20.2099 106.86 22.1784 98.0262 24.6951C89.2053 27.2616 80.5838 30.3888 72.4108 34.1887C64.2752 38.0012 56.5008 42.586 50.2465 48.1925C43.9672 53.7118 39.5693 60.6887 40.5286 66.7562C41.301 72.8735 47.7672 78.6046 55.5664 82.255C63.3781 86.0425 72.361 88.3972 81.4684 89.8923C99.7954 92.8201 118.932 92.4214 137.583 89.6057C156.221 86.7526 174.548 81.2085 191.019 72.7489C199.217 68.5253 207.016 63.5169 213.283 57.3996C214.865 55.8921 216.261 54.26 217.581 52.6154C218.802 50.921 219.961 49.2141 220.783 47.4325C221.593 45.6633 222.291 43.8693 222.515 42.1126C222.777 40.3559 222.752 38.6366 222.415 36.9795M232.756 35.2851C233.18 38.2005 233.03 41.1408 232.42 43.9191C231.847 46.7224 230.701 49.239 229.442 51.6187C226.801 56.3157 223.325 60.2028 219.587 63.5792C212.062 70.3319 203.453 75.3154 194.607 79.5016C176.816 87.7743 157.854 92.6831 138.729 96.1217C129.136 97.8036 119.443 98.9499 109.675 99.5105C99.9075 100.059 90.0401 100.059 80.1727 99.0246C70.3052 97.9905 60.3631 96.1466 50.7324 92.1722C45.9357 90.1664 41.2014 87.5749 36.9778 83.8248C34.9096 81.9186 32.8913 79.8131 31.3464 77.2341C29.7766 74.6925 28.5806 71.8269 27.9701 68.8119C27.4094 65.7844 27.4468 62.6821 27.9701 59.7294C28.456 56.7517 29.5523 54.0606 30.7858 51.519C33.3398 46.4856 36.8034 42.2995 40.5535 38.6615C48.0787 31.3855 56.7251 25.9784 65.6207 21.381C74.5288 16.7713 83.8605 13.208 93.3541 10.2304C98.1009 8.76023 102.898 7.46451 107.719 6.29338C112.553 5.17208 117.425 4.22521 122.321 3.39046C141.894 0.238375 162.04 -0.758333 181.999 2.43113C191.953 4.0757 201.896 6.64223 211.327 11.2395C213.682 12.3733 215.987 13.7189 218.229 15.1641C220.447 16.6965 222.64 18.3162 224.608 20.2971C226.564 22.2781 228.445 24.4335 229.841 27.0124C231.261 29.5541 232.283 32.3573 232.744 35.2602" fill="#27AAE1"/>
<path d="M1.52013 198.222C13.1941 258.398 88.919 295.289 170.649 280.625C252.379 265.961 309.154 205.299 297.48 145.122C285.806 84.9461 210.081 48.0554 128.351 62.707C46.6336 77.3836 -10.1538 138.046 1.52013 198.222Z" fill="white"/>
<path d="M100.431 34.2884C80.9202 33.5907 63.9263 51.1577 62.5185 73.4217C62.4437 74.518 62.4188 75.6643 62.4313 76.9101C62.4313 77.72 63.0791 78.3803 63.9014 78.4675C63.9637 78.4675 64.0136 78.4675 64.0759 78.4675C64.8358 78.4675 65.5086 77.9567 65.683 77.2341C69.9813 59.2559 87.2992 46.7348 106.797 47.4076C111.282 47.5695 115.643 48.4292 119.767 49.9616C121 50.4226 122.358 49.999 123.143 48.9151C124.04 47.6817 123.953 45.9997 122.944 44.9033C116.914 38.3375 108.915 34.5625 100.418 34.2635" fill="black"/>
<path d="M236.208 60.8009C235.921 59.7045 235.659 58.795 235.385 57.9602C232.109 48.1427 225.518 40.2313 217.283 36.2569C211.377 33.4038 205.247 32.8806 199.554 34.7494C193.748 36.6556 188.914 41.0411 185.949 47.0712C185.326 48.3545 185.674 49.862 186.808 50.759C187.892 51.6062 189.362 51.6311 190.471 50.8213C192.801 49.1269 195.38 47.8063 198.121 46.8968C211.626 42.4614 226.34 48.7656 233.105 61.8848C233.392 62.4454 233.977 62.7693 234.588 62.7693C234.775 62.7693 234.974 62.732 235.161 62.6697C235.958 62.3956 236.394 61.5858 236.195 60.8009" fill="black"/>
<path d="M268.887 122.622C267.529 121.862 266.37 122.821 267.043 124.216C270.033 130.421 269.971 139.778 260.103 139.778C249.127 139.778 234.588 126.334 214.84 126.334C200.837 126.334 185.475 135.716 184.092 156.248C174.798 142.631 158.514 133.411 138.655 133.411C102.723 133.411 77.0829 175.509 46.9076 175.509C33.8756 175.509 30.0009 164.184 32.8415 155.812C33.29 154.466 31.6953 153.358 30.5491 154.217C20.2083 161.979 16.645 175.422 16.645 188.442C16.645 223.501 53.7724 253.34 103.558 253.34C153.344 253.34 190.832 225.993 192.489 186.137C202.07 199.48 218.454 207.18 234.725 207.18C261.461 207.18 286.28 189.127 286.28 158.603C286.28 144.549 278.468 127.967 268.899 122.609" fill="black"/>
<path d="M83.1378 124.428C84.0349 119.083 86.6138 113.975 90.2767 109.627C93.9646 105.291 98.836 101.753 104.38 99.5728C109.899 97.3676 116.067 96.5328 121.885 97.3427C127.703 98.1276 133.148 100.308 137.483 103.659C138.953 104.806 139.19 106.874 138.007 108.294C137.234 109.216 136.051 109.627 134.917 109.49L134.717 109.465C129.821 108.867 125.411 108.331 121.125 108.456C116.864 108.568 112.79 109.179 108.903 110.549C105.028 111.92 101.378 114.013 98.1134 116.729C94.7993 119.42 91.9711 122.759 89.4295 126.571L89.3548 126.683C88.3456 128.191 86.265 128.639 84.6827 127.668C83.5116 126.945 82.9634 125.649 83.1627 124.416" fill="black"/>
<path d="M186.522 98.4017C188.602 94.3401 192.614 91.188 196.999 89.4313C201.422 87.6497 206.219 87.2011 210.754 87.6247C215.314 88.0483 219.7 89.369 223.637 91.3998C227.561 93.443 231.112 96.1964 233.703 99.6475C234.787 101.093 234.451 103.124 232.943 104.17C231.797 104.967 230.314 104.967 229.193 104.295L229.056 104.207C226.016 102.376 222.914 100.893 219.675 99.8469C216.448 98.7879 213.134 98.14 209.857 97.9282C206.58 97.7413 203.391 98.0154 200.376 98.7131C197.336 99.4108 194.545 100.594 191.667 102.426L191.443 102.563C189.873 103.56 187.767 103.136 186.721 101.628C186.036 100.632 185.998 99.3859 186.509 98.3767" fill="black"/>
</g>
<defs>
<clipPath id="clip0_105_548">
<rect width="299" height="283.352" fill="white" transform="translate(0 0.5)"/>
</clipPath>
</defs>
</svg>
