<svg width="66" height="49" viewBox="0 0 66 49" fill="none" xmlns="http://www.w3.org/2000/svg">
<g clip-path="url(#clip0_64_38)">
<path d="M32.2906 0C40.4585 0.128791 47.9515 0.226671 55.4239 0.795925C58.587 1.03548 61.2659 2.30277 63.1874 4.90434C64.3182 6.43437 64.8153 8.24002 65.2017 10.0766C65.6731 12.3149 65.722 14.5945 65.8199 16.8638C66.0852 23.0432 66.062 29.2226 65.7143 35.3994C65.5623 38.0885 65.2584 40.7442 64.1714 43.2427C62.6825 46.6685 60.0166 48.5978 56.3667 49.0692C52.7039 49.5431 49.005 49.5715 45.3164 49.7183C36.0023 50.0918 26.6882 49.9269 17.3792 49.5715C14.551 49.4633 11.7124 49.4144 8.92281 48.8451C4.6109 47.9642 2.10721 45.2518 1.05886 41.0533C0.255205 37.8361 0.229447 34.5468 0.126415 31.2703C-0.0770744 24.7896 -0.095105 18.3037 0.551423 11.8436C0.81158 9.24716 1.47356 6.71771 3.13496 4.60555C4.7706 2.52687 6.94201 1.29306 9.56161 0.929868C12.7324 0.489404 15.9367 0.450767 19.1307 0.33228C23.7414 0.1597 28.3573 0.095305 32.2906 0ZM32.1386 3.87402C28.4037 3.96417 23.8136 4.04145 19.2235 4.196C16.3952 4.2913 13.5618 4.43039 10.7439 4.67767C8.04703 4.91465 6.10487 6.23604 5.16985 8.91488C4.46666 10.9317 4.28635 13.0104 4.16271 15.1097C3.81755 20.9619 3.79437 26.8193 4.05195 32.6767C4.16529 35.2835 4.19362 37.9056 4.90454 40.4608C5.58713 42.913 7.01928 44.5332 9.58222 45.02C10.2983 45.1565 11.0169 45.2853 11.7407 45.3549C15.352 45.7078 18.9813 45.7464 22.6029 45.87C29.9182 46.1173 37.2335 46.1405 44.5488 45.87C48.3636 45.7284 52.1887 45.6897 55.9803 45.2184C58.2522 44.935 59.8646 43.6961 60.7146 41.4834C61.4899 39.4666 61.7166 37.3724 61.8403 35.25C62.2009 29.1608 62.2266 23.069 61.9459 16.9772C61.83 14.4761 61.8351 11.9518 61.0881 9.5202C60.6811 8.19623 60.1608 6.95726 58.994 6.06861C57.5721 4.98419 55.9288 4.67767 54.2236 4.57206C47.1556 4.13418 40.0747 3.97963 32.1386 3.88175V3.87402Z" fill="white"/>
<path d="M24.6299 24.3234C24.6299 21.7939 24.6247 19.2619 24.6299 16.7325C24.6376 14.2803 26.6802 13.0362 28.8259 14.2004C33.5319 16.7582 38.2224 19.3418 42.9207 21.9073C43.9227 22.4559 44.5435 23.2596 44.5332 24.4161C44.5229 25.5443 43.9124 26.3351 42.9284 26.8631C38.2096 29.3951 33.501 31.9452 28.7769 34.4643C26.6905 35.5771 24.6453 34.3381 24.6325 31.9787C24.6196 29.4261 24.6299 26.8734 24.6299 24.3234ZM39.3764 24.38C35.711 22.3735 32.1461 20.4236 28.5374 18.4505V30.2091C32.159 28.2618 35.7136 26.3505 39.3764 24.3826V24.38Z" fill="white"/>
</g>
<defs>
<clipPath id="clip0_64_38">
<rect width="66" height="49.9269" fill="white"/>
</clipPath>
</defs>
</svg>
