<svg width="66" height="66" viewBox="0 0 66 66" fill="none" xmlns="http://www.w3.org/2000/svg">
<g clip-path="url(#clip0_64_26)">
<path d="M0.0024604 33.001C0.0024604 28.2328 -0.00527277 23.4671 0.0024604 18.6989C0.0230822 10.1728 5.53425 2.94057 13.7469 0.651817C15.327 0.211078 16.9407 0.00488419 18.5827 0.00488419C28.1821 0.00488419 37.7841 -0.0131578 47.3836 0.010039C56.7484 0.0332358 64.5125 6.81958 65.8323 16.0931C65.9586 16.9849 66.0024 17.887 66.0024 18.7917C65.9973 28.2611 66.0025 37.7332 65.9973 47.2026C65.9896 56.087 60.1794 63.4455 51.5363 65.5255C50.1546 65.858 48.7446 65.9946 47.3217 65.9946C37.7635 65.9946 28.2053 66.01 18.6497 65.9894C9.27453 65.9662 1.52074 59.2185 0.17259 49.9372C0.0411262 49.0223 -0.000117322 48.0995 -0.000117322 47.1742C0.00761584 42.4498 0.0024604 37.7254 0.0024604 33.001ZM61.8678 33.0448C61.8678 28.3204 61.8626 23.596 61.8704 18.8716C61.8704 18.0314 61.8343 17.1937 61.6977 16.3689C60.499 9.20627 54.5445 4.14937 47.283 4.13907C37.7687 4.12618 28.2543 4.13907 18.7399 4.13391C17.9434 4.13391 17.1469 4.17515 16.3658 4.30402C9.21782 5.48963 4.14228 11.4667 4.13455 18.717C4.12424 28.2302 4.13455 37.7435 4.12939 47.2567C4.12939 48.0531 4.17064 48.8496 4.29952 49.6305C5.48012 56.7494 11.445 61.8449 18.6497 61.8604C28.2285 61.8784 37.8073 61.863 47.3861 61.8655C48.4198 61.8655 49.4457 61.765 50.4536 61.5356C57.2305 59.9969 61.8523 54.2286 61.8652 47.2799C61.8755 42.5349 61.8652 37.7873 61.8652 33.0423L61.8678 33.0448Z" fill="white"/>
<path d="M16.5029 32.9523C16.5236 23.8437 23.9448 16.4723 33.0648 16.5032C42.1745 16.5316 49.539 23.9597 49.5029 33.076C49.4643 42.1563 42.061 49.5097 32.9746 49.4968C23.8675 49.4813 16.4849 42.0661 16.5055 32.9523H16.5029ZM45.3734 33.0271C45.3863 26.1995 39.8545 20.6425 33.0313 20.6297C26.2003 20.6194 20.6428 26.1479 20.6324 32.9678C20.6221 39.7954 26.1539 45.3548 32.9746 45.3652C39.803 45.378 45.3605 39.8443 45.3734 33.0245V33.0271Z" fill="white"/>
<path d="M49.5077 18.5652C47.2419 18.5703 45.3705 16.6991 45.373 14.4336C45.3756 12.1551 47.2342 10.3071 49.518 10.3174C51.7581 10.3252 53.6115 12.1757 53.6218 14.4129C53.6321 16.6888 51.7787 18.56 49.5077 18.5652Z" fill="white"/>
</g>
<defs>
<clipPath id="clip0_64_26">
<rect width="66" height="66" fill="white"/>
</clipPath>
</defs>
</svg>
