<svg xmlns="http://www.w3.org/2000/svg" xmlns:xlink="http://www.w3.org/1999/xlink" width="180" height="160" viewBox="0 0 180 160"><defs><clipPath id="a"><rect width="55.555" height="97.678" transform="translate(0.723 0.697)" fill="#fff"/></clipPath><clipPath id="c"><rect width="180" height="160"/></clipPath></defs><g id="b" clip-path="url(#c)"><g transform="translate(61.277 31.303)"><path d="M55.336,32.443a1.376,1.376,0,0,1-1.512,1.4,1.338,1.338,0,0,1-1.4-1.391,1.362,1.362,0,0,1,1.435-1.507A1.4,1.4,0,0,1,55.336,32.443Z" fill="#fff"/><path d="M42.281,30.908c.905.165,1.5.669,1.435,1.575a1.356,1.356,0,0,1-1.57,1.361A1.308,1.308,0,0,1,40.832,32.4c0-.955.616-1.357,1.454-1.487Z" fill="#fff"/><path d="M49.813,26.261c-.1.94-.6,1.473-1.531,1.429a1.3,1.3,0,0,1-1.339-1.439,1.315,1.315,0,0,1,1.507-1.415A1.364,1.364,0,0,1,49.813,26.261Z" fill="#fff"/><g clip-path="url(#a)"><path d="M56.273,58.847V96.022c0,.286.008.573,0,.859a1.44,1.44,0,0,1-.885,1.352,1.341,1.341,0,0,1-1.5-.252c-.915-.787-1.857-1.543-2.711-2.391-.564-.558-.93-.5-1.464.027-.789.779-1.655,1.482-2.5,2.2a1.45,1.45,0,0,1-2.269.023q-1.418-1.2-2.784-2.456a.59.59,0,0,0-.957,0c-.889.817-1.8,1.6-2.715,2.391a1.515,1.515,0,0,1-2.421-.008c-.866-.745-1.731-1.49-2.566-2.272-.419-.393-.713-.477-1.178-.027-.839.817-1.746,1.566-2.643,2.33a1.49,1.49,0,0,1-2.349.011c-.892-.764-1.792-1.52-2.635-2.337-.454-.439-.755-.382-1.182.019-.808.76-1.655,1.478-2.5,2.207-1.064.921-1.56.909-2.635-.034-.835-.733-1.689-1.444-2.494-2.207-.408-.386-.686-.4-1.1-.008-.877.825-1.792,1.612-2.711,2.391A1.447,1.447,0,0,1,9.8,97.832c-.915-.783-1.838-1.562-2.711-2.391-.427-.409-.694-.348-1.1.027-.877.825-1.811,1.593-2.711,2.391a1.454,1.454,0,0,1-1.647.386,1.5,1.5,0,0,1-.9-1.532q0-12.248,0-24.5c0-1.035.564-1.677,1.411-1.688.877-.015,1.438.645,1.441,1.742.008,2.257.038,4.514-.015,6.767-.019.817.16,1.069,1.03,1.065,6.277-.042,12.557-.023,18.833-.023,9.64,0,19.276-.011,28.916.019.877,0,1.087-.237,1.087-1.1q-.04-28.787-.019-57.573c0-1.528.461-2.227,1.457-2.2.969.023,1.407.7,1.407,2.173V58.862ZM53.41,93.773c0-3.594-.015-6.9.012-10.2.008-.718-.408-.642-.858-.642q-24.069,0-48.134-.011c-.656,0-.869.164-.862.844.038,2.7.015,5.4.015,8.1v1.875c.728-.626,1.27-1.1,1.819-1.562a1.473,1.473,0,0,1,2.273-.023c.919.779,1.834,1.566,2.715,2.391.4.382.671.416,1.094.011.847-.81,1.754-1.562,2.642-2.326a1.518,1.518,0,0,1,2.418,0c.793.684,1.6,1.352,2.349,2.085.564.554.988.687,1.609.038.744-.775,1.6-1.444,2.418-2.146a1.5,1.5,0,0,1,2.349-.019c.915.783,1.834,1.566,2.715,2.391.385.359.637.363,1.022,0,.881-.825,1.8-1.608,2.711-2.395a1.5,1.5,0,0,1,2.349.019c.843.726,1.712,1.421,2.5,2.2.557.554.923.516,1.46-.027.782-.787,1.647-1.489,2.49-2.211a1.472,1.472,0,0,1,2.277-.011c.942.8,1.88,1.612,2.787,2.452.355.328.591.336.946,0,.785-.741,1.613-1.432,2.425-2.143,1.289-1.134,1.685-1.134,3,.012.423.367.839.741,1.457,1.287Z" fill="#fff"/><path d="M3.586,5.551V64.335a9.554,9.554,0,0,1-.015,1.046,1.342,1.342,0,0,1-1.377,1.306A1.345,1.345,0,0,1,.772,65.534a4.113,4.113,0,0,1-.046-.947q-.006-30.9,0-61.778V2.236A1.456,1.456,0,0,1,1.577.861a1.367,1.367,0,0,1,1.582.267C4.048,1.9,4.978,2.621,5.8,3.458c.6.611.98.531,1.537-.027.786-.783,1.647-1.489,2.494-2.207a1.427,1.427,0,0,1,2.2-.019c.946.8,1.88,1.612,2.788,2.452a.629.629,0,0,0,1.03,0c.808-.76,1.663-1.474,2.5-2.207,1.152-1.012,1.605-1.012,2.78.015.766.668,1.552,1.314,2.28,2.02.5.481.862.569,1.4.031.808-.806,1.693-1.535,2.563-2.276a1.454,1.454,0,0,1,2.273,0c.919.779,1.842,1.558,2.715,2.387.423.4.7.37,1.1-.011.782-.741,1.609-1.44,2.421-2.15C37.047.437,37.5.437,38.653,1.445c.812.71,1.651,1.394,2.425,2.143.435.42.728.435,1.174.011.873-.833,1.788-1.616,2.711-2.395a1.425,1.425,0,0,1,2.2.011c.919.783,1.846,1.554,2.715,2.391.458.443.747.37,1.171-.027.877-.825,1.807-1.6,2.711-2.395A1.416,1.416,0,0,1,55.412.853,1.474,1.474,0,0,1,56.27,2.32c0,3.811.008,7.627-.008,11.438a1.437,1.437,0,1,1-2.848.008c-.011-2.727,0-5.454,0-8.311a10.878,10.878,0,0,0-1.826,1.451A1.494,1.494,0,0,1,49.3,6.9c-.892-.76-1.8-1.52-2.635-2.337-.48-.466-.789-.412-1.243.023-.8.768-1.655,1.478-2.5,2.2-1.01.871-1.541.863-2.566-.031-.862-.752-1.731-1.493-2.566-2.272-.374-.348-.633-.374-1.022-.008-.877.825-1.8,1.6-2.715,2.391a1.5,1.5,0,0,1-2.349-.008c-.843-.726-1.693-1.444-2.494-2.207-.488-.466-.847-.592-1.388-.034-.755.768-1.605,1.44-2.421,2.146-1.01.882-1.571.882-2.566.015-.885-.771-1.785-1.528-2.642-2.33a.577.577,0,0,0-.946,0c-.911.84-1.842,1.654-2.787,2.452a1.48,1.48,0,0,1-2.276-.027c-.866-.745-1.75-1.47-2.57-2.269-.481-.47-.8-.535-1.316-.027-.808.8-1.693,1.531-2.566,2.272a1.5,1.5,0,0,1-2.345,0c-.507-.428-1.007-.871-1.518-1.3-.038-.031-.114-.011-.286-.023Z" fill="#fff"/><path d="M28.506,11.027H43.72c2.36,0,3.489,1.134,3.5,3.5,0,.634.008,1.272,0,1.906a2.974,2.974,0,0,1-3.26,3.246c-3.581.023-7.165.008-10.746.008-.412,0-.824.015-1.236-.008-.984-.053-1.571-.6-1.567-1.428a1.426,1.426,0,0,1,1.575-1.425c2.219-.03,4.439-.011,6.654-.011,1.647,0,3.3-.015,4.946.008.549.008.774-.134.789-.737.057-2.188.08-2.188-2.086-2.188q-14.265,0-28.527-.015c-.82,0-1.171.141-1.136,1.069.069,1.864.015,1.864,1.849,1.864H24.46a5.209,5.209,0,0,1,.946.053,1.4,1.4,0,0,1-.011,2.769,4.883,4.883,0,0,1-.854.05c-3.741,0-7.482.008-11.219,0-2.44,0-3.531-1.1-3.539-3.548,0-.634-.011-1.272,0-1.906a2.991,2.991,0,0,1,3.222-3.2c4.881-.012,9.762,0,14.643,0h.858Z" fill="#fff"/><path d="M27.915,71.679c0-.6-.023-1.012,0-1.421a3,3,0,0,0-1.514-3.3c-2.845-1.765-2.364-6.038.645-7.627.473-.252.885-.416.934-1.115a1.213,1.213,0,0,1,1.342-1.092,1.261,1.261,0,0,1,1.388,1.165c.057.607.358.787.827.962a4.76,4.76,0,0,1,1.8,1.214,1.45,1.45,0,0,1,.141,2.051,1.43,1.43,0,0,1-2.048.084c-.172-.126-.282-.347-.656-.355,0,1.1.011,2.192-.008,3.284-.008.378.244.466.5.592a4.6,4.6,0,0,1-.027,8.494c-.4.176-.461.412-.488.791-.065,1.023-.572,1.577-1.4,1.593-.862.019-1.38-.531-1.441-1.627a.7.7,0,0,0-.542-.752A5.206,5.206,0,0,1,25.516,73.5a1.549,1.549,0,0,1-.328-2.261c.576-.634,1.327-.611,2.185.065.118.092.248.172.526.37Zm-.038-9.162a1.326,1.326,0,0,0,0,1.944Z" fill="#fff"/><path d="M20.1,37.02H8.689a5.559,5.559,0,0,1-1.041-.057,1.294,1.294,0,0,1-1.121-1.34,1.265,1.265,0,0,1,.969-1.36,4.262,4.262,0,0,1,1.125-.107q11.508-.012,23.017,0c.191,0,.381-.008.572,0a1.483,1.483,0,0,1,1.563,1.451,1.441,1.441,0,0,1-1.594,1.405c-3.3.023-6.593.011-9.891.011H20.1Z" fill="#fff"/><path d="M15.415,45.72q3.472,0,6.944,0c1.14,0,1.762.5,1.781,1.39.019.928-.629,1.47-1.808,1.47q-6.99.006-13.983,0c-1.178,0-1.849-.542-1.842-1.451s.667-1.413,1.868-1.413h7.039Z" fill="#fff"/><path d="M26.378,54.344c-1.929,0-3.863.008-5.792,0-1.068-.008-1.655-.519-1.663-1.4a1.443,1.443,0,0,1,1.632-1.459q5.794-.023,11.585,0a1.481,1.481,0,0,1,1.636,1.474c-.023.848-.652,1.375-1.7,1.383C30.176,54.355,28.277,54.344,26.378,54.344Z" fill="#fff"/><path d="M13.657,31.238c-1.8,0-3.607.008-5.411,0-1.1-.008-1.75-.561-1.735-1.444s.671-1.413,1.773-1.417q5.411-.012,10.822,0c1.113,0,1.762.527,1.781,1.405.019.905-.656,1.451-1.819,1.455C17.264,31.246,15.461,31.238,13.657,31.238Z" fill="#fff"/><path d="M13.71,74.31c1.834,0,3.672-.008,5.506,0,1.029.008,1.666.558,1.67,1.409a1.457,1.457,0,0,1-1.643,1.447q-5.554.017-11.108,0A1.457,1.457,0,0,1,6.511,75.7a1.428,1.428,0,0,1,1.6-1.386c1.868-.015,3.733,0,5.6,0Z" fill="#fff"/><path d="M21.928,42.818c-1.392,0-2.787.015-4.179,0-1.083-.015-1.747-.6-1.727-1.478.019-.848.641-1.379,1.7-1.382q4.273-.017,8.549,0c1.129,0,1.727.531,1.712,1.448-.019.863-.622,1.394-1.682,1.409-1.457.023-2.913,0-4.37,0Z" fill="#fff"/><path d="M11.247,54.34c-1.079,0-2.158.019-3.234-.008a1.391,1.391,0,0,1-1.5-1.383,1.406,1.406,0,0,1,1.449-1.455c2.189-.038,4.378-.042,6.563,0a1.42,1.42,0,1,1-.046,2.838C13.4,54.359,12.326,54.34,11.247,54.34Z" fill="#fff"/><path d="M10.8,22.618c.95,0,1.9-.027,2.852.008a1.416,1.416,0,1,1,.073,2.83q-2.9.063-5.8,0A1.4,1.4,0,0,1,6.515,23.97a1.38,1.38,0,0,1,1.434-1.348c.949-.034,1.9-.008,2.852-.008Z" fill="#fff"/><path d="M10.793,71.4c-.888,0-1.777.027-2.662-.008-1.022-.038-1.643-.642-1.617-1.49.027-.821.629-1.352,1.617-1.363q2.711-.029,5.419,0a1.424,1.424,0,1,1,.092,2.838c-.95.05-1.9.011-2.852.011V71.4Z" fill="#fff"/><path d="M30.351,48.577c-.633,0-1.266.034-1.9-.011a1.4,1.4,0,0,1-1.365-1.424,1.367,1.367,0,0,1,1.369-1.409c1.3-.038,2.593-.034,3.889,0A1.412,1.412,0,0,1,33.772,47.1a1.438,1.438,0,0,1-1.43,1.47c-.663.038-1.327.008-1.991.008Z" fill="#fff"/><path d="M46.065,54.333c-.663,0-1.331.03-1.99-.008A1.287,1.287,0,0,1,42.744,53a1.253,1.253,0,0,1,1.182-1.459,33.068,33.068,0,0,1,4.263,0A1.3,1.3,0,0,1,49.4,53a1.39,1.39,0,0,1-1.438,1.34c-.633.027-1.266,0-1.9,0v-.008Z" fill="#fff"/><path d="M46.054,45.724c.633,0,1.266-.023,1.9,0a1.438,1.438,0,0,1,1.46,1.436,1.416,1.416,0,0,1-1.4,1.4c-1.3.042-2.6.046-3.889,0a1.421,1.421,0,0,1,.034-2.842c.633-.03,1.266-.008,1.9-.008Z" fill="#fff"/><path d="M46.065,74.314c.633,0,1.266-.023,1.9.008A1.42,1.42,0,0,1,49.41,75.67,1.4,1.4,0,0,1,48.1,77.152c-1.357.057-2.723.057-4.08,0a1.333,1.333,0,0,1-1.277-1.486,1.309,1.309,0,0,1,1.331-1.333c.66-.046,1.327-.008,1.994-.008Z" fill="#fff"/><path d="M46.119,34.156c.6,0,1.2-.031,1.8.008a1.454,1.454,0,0,1,1.491,1.413A1.416,1.416,0,0,1,47.945,37c-1.262.038-2.528.031-3.794,0a1.316,1.316,0,0,1-1.415-1.348,1.36,1.36,0,0,1,1.388-1.482c.66-.046,1.327-.008,1.991-.008v0Z" fill="#fff"/><path d="M46.05,42.81c-.633,0-1.266.038-1.9-.008a1.39,1.39,0,0,1-1.415-1.467,1.348,1.348,0,0,1,1.491-1.371c1.232-.031,2.467-.031,3.7,0a1.415,1.415,0,0,1,1.487,1.4,1.483,1.483,0,0,1-1.464,1.451,1.569,1.569,0,0,1-.191.008H46.054v-.008Z" fill="#fff"/><path d="M46.043,71.377c-.663,0-1.331.053-1.987-.012a1.405,1.405,0,0,1,.088-2.807c1.3-.038,2.593-.027,3.886,0a1.339,1.339,0,0,1,1.377,1.3,1.42,1.42,0,0,1-1.277,1.508,1.725,1.725,0,0,1-.282.034h-1.8v-.027Z" fill="#fff"/><path d="M9.813,42.814c-.6,0-1.2.031-1.8-.008a1.45,1.45,0,0,1-1.5-1.5,1.4,1.4,0,0,1,1.529-1.348c1.2-.023,2.4-.027,3.6,0a1.375,1.375,0,0,1,1.445,1.325,1.439,1.439,0,0,1-1.38,1.516,1.558,1.558,0,0,1-.191.012H9.813Z" fill="#fff"/><path d="M28.494,88.712c-.984,0-1.968.023-2.948-.008a1.446,1.446,0,0,1-1.552-1.348,1.431,1.431,0,0,1,1.51-1.489q3-.057,5.991,0a1.425,1.425,0,0,1,1.5,1.4A1.44,1.44,0,0,1,31.442,88.7C30.458,88.735,29.478,88.712,28.494,88.712Z" fill="#fff"/></g></g></g></svg>