<svg xmlns="http://www.w3.org/2000/svg" xmlns:xlink="http://www.w3.org/1999/xlink" width="180" height="160" viewBox="0 0 180 160"><defs><clipPath id="b"><rect width="180" height="160"/></clipPath></defs><g id="a" clip-path="url(#b)"><g transform="translate(18.265 44.76)"><path d="M142.249,51.205a30.924,30.924,0,0,1-.957,8.061c-2.5,9.5-9.479,14.3-19.358,13.473a41.65,41.65,0,0,1-14.781-4.212c-5.875-2.847-11.683-5.834-17.5-8.816-.991-.508-1.4-.474-1.973.61-3.315,6.284-8.882,9.354-15.571,10.767-7.189,1.52-13.79.082-20.031-3.718C48.859,65.41,45.3,64.04,42.07,62.06A74.952,74.952,0,0,1,22.116,43.619c-1.934-2.488-3.84-5.006-5.87-7.412-3.363-3.984-7.28-7.165-12.52-8.375A3.7,3.7,0,0,1,.786,24.51a4.042,4.042,0,0,1,2.358-4.381,8.843,8.843,0,0,1,8.483.106,17.54,17.54,0,0,1,5.105,3.96,4.634,4.634,0,0,0,3.642,1.53c4.99.131,9.575-1.389,14.026-3.442,6.818-3.142,12.929-7.451,19.064-11.726C57.135,8,60.734,5.329,64.608,3.083A18.128,18.128,0,0,1,73.182.246,8.722,8.722,0,0,1,81.251,4.5c.3.465.433,1.084,1.294.813C88.767,3.368,94.979,4,101.138,5.6c7.574,1.975,14.974,4.435,21.532,8.893,11.539,7.853,17.746,18.92,19.372,32.718.092.784.159,1.573.207,2.362.034.542.005,1.084.005,1.627ZM118.686,68.939a76.968,76.968,0,0,1-9.5-4.222c-6.448-3.457-12.852-7-19.333-10.385-9.364-4.895-19.064-8.395-29.909-6.817a6.529,6.529,0,0,1-3.6-.576,4.443,4.443,0,0,1-1.91-6.279,1.248,1.248,0,0,1,2.329.867,4.261,4.261,0,0,1-.144.416c-.505,2.053.058,2.9,2.156,3.016a30.068,30.068,0,0,0,3.676-.121,38.717,38.717,0,0,1,9.979.344c6.78,1.273,12.987,4.081,19.078,7.18,7.222,3.67,14.17,7.853,21.426,11.464,6.636,3.3,13.386,4.309,20.522,2.029a3.516,3.516,0,0,0,1.9-1.269,17.207,17.207,0,0,0,3.349-8.734c1.5-15.3-3.816-27.784-15.792-37.3-6.727-5.34-14.738-7.911-22.9-10.007-5.2-1.336-10.451-1.883-15.715-.441C78.1,9.8,73.485,13.758,69.655,18.749A115.492,115.492,0,0,1,57.809,32.3a19.538,19.538,0,0,0-2.387,2.808,16.18,16.18,0,0,0-3.416,11.193,2.322,2.322,0,0,0,2.334,2.348,22.545,22.545,0,0,0,4.119.1c10.855-.741,20.839,2.188,30.448,7.03,6.837,3.447,13.535,7.18,20.531,10.307a32.268,32.268,0,0,0,9.253,2.852ZM21.4,28.95c.058.252.053.368.106.436C27.871,37.219,33.77,45.43,40.617,52.871A74.185,74.185,0,0,0,52.16,63.614c7.684,5.422,15.883,6.4,24.544,2.716a16.3,16.3,0,0,0,8.31-7.635c.236-.45.611-.9-.216-1.288-5.639-2.619-11.409-4.72-17.664-5.3-4.268-.4-8.541.073-12.8-.252-3.517-.266-5.327-2.159-5.519-5.693-.347-6.42,2.329-11.619,6.7-16A135.3,135.3,0,0,0,67.249,16.711,32.87,32.87,0,0,1,78.032,7.236c.967-.5.722-.905.25-1.515-1.819-2.353-4.258-2.624-6.91-2.038-3.132.687-5.793,2.392-8.4,4.164-4.711,3.21-9.354,6.521-14.089,9.7C42.676,21.727,36.281,25.556,29.035,27.7A36.894,36.894,0,0,1,21.4,28.964ZM39,55.974c-2.675-3.137-5.4-6.236-8.021-9.421-4.634-5.621-8.829-11.595-13.641-17.066a29.99,29.99,0,0,0-6.616-6.052,6.233,6.233,0,0,0-5.9-.586c-.5.2-.986.571-.914,1.205.063.566.539.746,1.049.867,5.692,1.38,10.013,4.846,13.68,9.237,2.4,2.871,4.639,5.873,6.967,8.8A63.04,63.04,0,0,0,39,55.974Z" fill="#fff"/><path d="M98.415,19.316a1.375,1.375,0,0,1-1.511,1.4,1.337,1.337,0,0,1-1.4-1.389,1.361,1.361,0,0,1,1.434-1.506A1.4,1.4,0,0,1,98.415,19.316Z" fill="#fff"/><path d="M85.37,17.781c.9.165,1.5.668,1.434,1.574a1.355,1.355,0,0,1-1.569,1.36,1.307,1.307,0,0,1-1.314-1.448c0-.954.616-1.356,1.453-1.486Z" fill="#fff"/><path d="M92.9,13.138c-.1.939-.6,1.472-1.53,1.428a1.3,1.3,0,0,1-1.338-1.438,1.313,1.313,0,0,1,1.506-1.414A1.363,1.363,0,0,1,92.9,13.138Z" fill="#fff"/></g></g></svg>