<svg width="66" height="66" viewBox="0 0 66 66" fill="none" xmlns="http://www.w3.org/2000/svg">
<g clip-path="url(#clip0_64_31)">
<path d="M-0.000269649 32.9807C-0.000269649 24.7316 -0.00542529 16.4852 0.00230817 8.23615C0.00746382 4.25856 2.50537 1.09042 6.31282 0.198492C6.96243 0.0464008 7.62493 0 8.29517 0C24.77 0.00257782 41.2449 0 57.7172 0.00515565C62.5119 0.00515565 65.9946 3.50584 65.9946 8.31348C65.9997 24.7651 65.9997 41.2194 65.9946 57.6711C65.9946 62.5122 62.5094 65.9923 57.6682 65.9974C52.9224 66.0026 48.1741 65.9974 43.4283 65.9974C41.8481 65.9974 41.1186 65.2576 41.1186 63.6619C41.1186 56.0367 41.1186 48.4115 41.1186 40.7863C41.1186 39.2061 41.8507 38.474 43.4515 38.4663C45.4287 38.4585 47.4033 38.4482 49.3805 38.474C49.8961 38.4817 50.0946 38.3657 50.0791 37.8064C50.0404 36.3886 50.043 34.9707 50.0791 33.5529C50.092 33.0271 49.9064 32.9059 49.4166 32.9111C47.442 32.9343 45.4648 32.924 43.4876 32.9188C41.8404 32.9162 41.1212 32.1996 41.1212 30.5756C41.1212 28.1705 41.116 25.7653 41.1212 23.3577C41.1237 21.7697 42.0054 20.8881 43.5985 20.8829C45.5756 20.8752 47.5503 20.8701 49.5274 20.8907C49.9425 20.8958 50.0843 20.7798 50.0765 20.3519C50.0533 18.849 50.0662 17.3462 50.0688 15.8407C50.0688 15.5752 50.092 15.3252 49.6873 15.338C47.1765 15.4051 44.6554 15.1524 42.1574 15.4644C38.5253 15.9181 35.6742 19.1197 35.5995 22.7931C35.5453 25.3916 35.5866 27.99 35.5814 30.5884C35.5788 32.1867 34.8648 32.9059 33.264 32.9111C31.2661 32.9162 29.2683 32.9291 27.2705 32.9008C26.7498 32.893 26.6158 33.0657 26.6261 33.5607C26.6544 34.9785 26.657 36.3963 26.6261 37.8141C26.6158 38.3142 26.7524 38.4792 27.2705 38.4714C29.2451 38.4431 31.2223 38.456 33.1995 38.4611C34.8803 38.4663 35.584 39.1752 35.584 40.8585C35.584 48.4399 35.584 56.0213 35.584 63.6026C35.584 65.2808 34.8751 65.9923 33.1969 65.9923C24.9273 65.9923 16.6576 65.9949 8.38797 65.9923C3.45917 65.9949 0.004886 62.5303 0.00230817 57.5937C-0.000269649 49.3885 0.00230817 41.1833 0.00230817 32.9781L-0.000269649 32.9807ZM3.89224 32.9368C3.89224 41.1421 3.88967 49.3498 3.89224 57.5551C3.89224 60.3185 5.59618 62.0972 8.29774 62.1023C15.9023 62.1178 23.5069 62.1023 31.1115 62.1178C31.5626 62.1178 31.6915 61.9889 31.6915 61.5378C31.6786 55.351 31.676 49.1642 31.6915 42.9775C31.6915 42.4748 31.5291 42.3717 31.0651 42.3768C29.0466 42.4 27.0256 42.3923 25.0072 42.3846C23.4682 42.3794 22.7078 41.6215 22.7052 40.0826C22.7 37.1619 22.7 34.2386 22.7052 31.318C22.7078 29.7842 23.4734 29.0263 25.0123 29.0211C27.0308 29.016 29.0518 29.0057 31.0702 29.0314C31.5394 29.0366 31.7044 28.9283 31.6915 28.4282C31.6554 27.0981 31.6786 25.7653 31.6786 24.4326C31.6786 23.2081 31.6502 21.9837 31.908 20.7773C33.0809 15.271 37.6978 11.5177 43.4 11.4662C46.1505 11.4404 48.8985 11.4584 51.649 11.4636C53.2395 11.4636 53.9768 12.1957 53.9793 13.7862C53.9845 16.6862 53.9845 19.5863 53.9793 22.4864C53.9768 24.0459 53.2447 24.7832 51.6954 24.7858C49.6538 24.7909 47.6147 24.7987 45.5731 24.778C45.1168 24.7729 44.9827 24.9172 44.9956 25.3632C45.024 26.3943 45.0266 27.4255 44.9956 28.4566C44.9802 28.9154 45.1348 29.034 45.5782 29.0289C47.5967 29.0082 49.6177 29.016 51.6361 29.0211C53.2189 29.0237 53.9768 29.7739 53.9793 31.3463C53.9845 34.2464 53.9845 37.1464 53.9793 40.0465C53.9793 41.6267 53.2266 42.382 51.649 42.3846C49.6718 42.3897 47.6972 42.4052 45.72 42.3743C45.1787 42.3665 44.9879 42.4748 44.9905 43.0703C45.0137 49.1926 45.0111 55.3149 44.9931 61.4373C44.9931 61.9683 45.1297 62.123 45.6684 62.1204C49.6202 62.0972 53.5746 62.1126 57.5264 62.1075C60.3801 62.1049 62.0969 60.3855 62.0969 57.5267C62.0969 41.1781 62.0969 24.8322 62.0969 8.48362C62.0969 5.62223 60.3827 3.90025 57.5316 3.89767C41.1624 3.89509 24.7932 3.89767 8.42406 3.89767C7.92911 3.89767 7.43417 3.93376 6.95727 4.0678C5.01102 4.60915 3.88967 6.20482 3.88709 8.4501C3.88451 16.6141 3.88709 24.7755 3.88709 32.9394L3.89224 32.9368Z" fill="white"/>
</g>
<defs>
<clipPath id="clip0_64_31">
<rect width="66" height="66" fill="white"/>
</clipPath>
</defs>
</svg>
