<svg xmlns="http://www.w3.org/2000/svg" xmlns:xlink="http://www.w3.org/1999/xlink" width="180" height="160" viewBox="0 0 180 160"><defs><clipPath id="b"><rect width="180" height="160"/></clipPath></defs><g id="a" clip-path="url(#b)"><g transform="translate(40.888 22.242)"><path d="M51.448,76.431v7.4c0,.475.381.693.661.973,2.085,2.092,4.182,4.17,6.271,6.261,1.042,1.048,1.175,2.176.386,3.02-.856.91-2,.835-3.1-.257-1.326-1.328-2.626-2.682-3.93-4.014-.426.3-.284.622-.284.888-.018,1.332.08,2.669-.031,3.988-.151,1.816.155,3.042,2.036,4.094,2.99,1.674,3.752,5.329,2.244,8.446a23.911,23.911,0,0,1-4.834,6.435,1.829,1.829,0,0,1-2.763.04,26.771,26.771,0,0,1-4.834-6.3,6.713,6.713,0,0,1,3.313-9.361,1.3,1.3,0,0,0,.958-1.456c-.053-2.211-.018-4.423-.018-6.954l-3.344,3.348c-.39.391-.767.8-1.184,1.163A1.918,1.918,0,1,1,40.319,91.4q3.213-3.291,6.5-6.506a2.168,2.168,0,0,0,.732-1.736c-.044-2.234-.018-4.472-.018-6.737a2.207,2.207,0,0,0-1.193.533Q41.8,79.715,37.286,82.5a2.084,2.084,0,0,1-2.377.209,2.138,2.138,0,0,1-.945-2.1c.111-3.619.186-7.238.262-10.862a1.919,1.919,0,0,0-.151-1.19q-3.253,1.878-6.484,3.752c-.364.209-.364.617-.461.968-.741,2.74-1.472,5.484-2.213,8.229-.067.249-.129.5-.208.746a1.938,1.938,0,1,1-3.73-1.026c.359-1.47.785-2.922,1.18-4.383.124-.457.226-.919.408-1.643-2.28,1.319-4.36,2.522-6.444,3.717-.35.2-.231.484-.2.777.515,4.538-2.377,7.882-6.91,7.958a26.175,26.175,0,0,1-7.207-1A1.889,1.889,0,0,1,.313,84.14a24.255,24.255,0,0,1,2.963-7.123,6.684,6.684,0,0,1,9.984-1.781,1,1,0,0,0,1.344.084c1.92-1.155,3.872-2.251,6.041-3.5-1.929-.524-3.61-.977-5.291-1.43-.248-.067-.5-.129-.745-.209a1.91,1.91,0,0,1-1.49-2.425,1.94,1.94,0,0,1,2.55-1.3c1.464.368,2.918.782,4.378,1.172,1.566.417,3.136.821,4.7,1.252a1.228,1.228,0,0,0,1.051-.022c2.1-1.226,4.2-2.433,6.453-3.73-2.023-1.1-3.921-2.14-5.824-3.175-1.619-.879-3.233-1.772-4.866-2.633a1.98,1.98,0,0,1-1.2-1.838,2,2,0,0,1,1.215-1.829c3.539-1.9,7.061-3.828,10.747-5.831-2.271-1.314-4.431-2.567-6.6-3.8-.39-.222-.789-.018-1.18.084L16.32,48.287c-.284.076-.568.16-.856.213a1.914,1.914,0,0,1-2.32-1.359,1.856,1.856,0,0,1,1.317-2.34c1.548-.475,3.127-.853,4.688-1.279.417-.115.829-.244,1.5-.44-2.306-1.332-4.4-2.531-6.48-3.752-.386-.227-.59,0-.865.191-3.85,2.758-8.05,1.874-10.45-2.211a27,27,0,0,1-2.643-6.55,1.866,1.866,0,0,1,1.237-2.487,22.294,22.294,0,0,1,8.409-.99,6.493,6.493,0,0,1,6,7.047,2.032,2.032,0,0,0,1.3,2.282c1.765.906,3.455,1.954,5.185,2.944.3-.431.027-.755-.058-1.083-.395-1.536-.812-3.064-1.211-4.6A2,2,0,0,1,22.3,31.186c1.109-.337,2.133.329,2.51,1.7Q26,37.2,27.129,41.541A2.056,2.056,0,0,0,28.2,42.967c1.965,1.079,3.894,2.225,5.983,3.428.022-.48.058-.826.053-1.168-.08-3.619-.16-7.238-.266-10.862a2.092,2.092,0,0,1,.94-2.091,2.123,2.123,0,0,1,2.382.209c3.012,1.865,6.032,3.708,9.053,5.555.337.2.683.4,1.189.684V31.19c0-.48-.368-.7-.643-.977-2.133-2.149-4.285-4.281-6.413-6.434a1.958,1.958,0,0,1-.084-3.011A1.9,1.9,0,0,1,43.162,21c1.388,1.368,2.732,2.775,4.1,4.174.4-.373.262-.724.266-1.03.018-1.55-.058-3.108.027-4.654a2.361,2.361,0,0,0-1.49-2.7,6.5,6.5,0,0,1-2.825-8.815,23.887,23.887,0,0,1,4.914-6.506,1.868,1.868,0,0,1,2.772.049,26.769,26.769,0,0,1,4.75,6.226,6.729,6.729,0,0,1-3.393,9.419,1.154,1.154,0,0,0-.856,1.292c.049,2.2.018,4.4.018,6.594l.364.231c1.038-1.128,2.076-2.26,3.118-3.379.328-.351.67-.693,1.029-1.008a1.9,1.9,0,0,1,2.772-.018,1.921,1.921,0,0,1-.084,2.775c-1.912,1.954-3.8,3.934-5.815,5.773a3.932,3.932,0,0,0-1.415,3.464c.124,1.874.031,3.766.031,5.635.439.16.661-.155.923-.315q4.63-2.818,9.248-5.662A2.247,2.247,0,0,1,64.1,32.26a2.211,2.211,0,0,1,.954,2.3c-.106,3.544-.186,7.092-.266,10.64a1.854,1.854,0,0,0,.138,1.159c1.827-1.053,3.632-2.1,5.451-3.131.457-.262.466-.728.577-1.137.781-2.882,1.539-5.773,2.324-8.655.333-1.221,1.082-1.834,2.076-1.767a1.939,1.939,0,0,1,1.73,2.545c-.483,1.927-1.025,3.841-1.539,5.764.408.2.608-.1.834-.222,1.127-.626,2.2-1.372,3.366-1.905A3.406,3.406,0,0,0,82.109,34.1a6.285,6.285,0,0,1,5.744-6.253,23.179,23.179,0,0,1,8.525.959,1.863,1.863,0,0,1,1.344,2.433A24.659,24.659,0,0,1,94.7,38.455a6.692,6.692,0,0,1-9.833,1.807,1.089,1.089,0,0,0-1.437-.093c-1.912,1.154-3.863,2.247-6,3.481,2.133.582,4,1.106,5.877,1.594A2.052,2.052,0,0,1,84.917,46.6a1.935,1.935,0,0,1-2.506,2.42,59.407,59.407,0,0,1-6.6-1.8,5.722,5.722,0,0,0-6.032.808,28.965,28.965,0,0,1-3.047,1.816c3.326,1.8,6.533,3.53,9.727,5.271.985.537,2.2.91,2.227,2.34s-1.158,1.843-2.147,2.385q-4.371,2.378-8.746,4.747c-.319.173-.634.36-1.042.591,2.2,1.266,4.307,2.473,6.4,3.7a1.383,1.383,0,0,0,1.162.04q4.431-1.192,8.866-2.358c1.406-.368,2.4.12,2.714,1.306.293,1.11-.328,2.043-1.677,2.42-1.845.52-3.7.995-5.606,1.505.244.56.794.666,1.206.915,1.548.928,3.131,1.8,4.679,2.731a.967.967,0,0,0,1.264-.089,6.706,6.706,0,0,1,10.193,1.963A26.373,26.373,0,0,1,98.8,84.247a1.8,1.8,0,0,1-1.149,2.34,20.473,20.473,0,0,1-9.163.964,6.544,6.544,0,0,1-5.367-7.167A1.647,1.647,0,0,0,82.114,78.5c-1.863-.959-3.646-2.069-5.708-3.255.457,1.758.852,3.268,1.251,4.783.111.426.262.848.355,1.279a1.967,1.967,0,0,1-1.419,2.5,1.914,1.914,0,0,1-2.32-1.523A53.714,53.714,0,0,1,72.6,75.97a6.269,6.269,0,0,0-4.085-5.324,34.587,34.587,0,0,1-3.739-2.1c0,.515-.009.893,0,1.27.089,3.548.164,7.092.275,10.64A2.066,2.066,0,0,1,61.6,82.417q-4.471-2.764-8.964-5.489a1.814,1.814,0,0,0-1.171-.493ZM26.37,57.474c.541.311.883.52,1.233.71,2.98,1.621,5.939,3.277,8.95,4.831a2.747,2.747,0,0,1,1.677,2.9c-.155,3.468-.2,6.941-.266,10.413-.009.338-.168.719.186,1.07,3.242-1.985,6.507-3.921,9.7-5.964a2.759,2.759,0,0,1,3.353.027c2.825,1.807,5.7,3.53,8.574,5.271a2.494,2.494,0,0,0,1.162.586c.226-.355.1-.728.1-1.079-.08-3.473-.133-6.945-.275-10.413a2.629,2.629,0,0,1,1.575-2.744c3.1-1.616,6.169-3.317,9.239-5,.306-.169.7-.24.9-.666-.315-.187-.621-.377-.936-.551-3.109-1.692-6.205-3.4-9.332-5.054a2.435,2.435,0,0,1-1.45-2.482c.124-3.544.2-7.092.275-10.635.009-.346.142-.719-.155-1.115-.35.2-.692.4-1.029.608-2.958,1.807-5.93,3.588-8.862,5.44a2.479,2.479,0,0,1-2.963.009C45.034,41.759,42,39.934,38.98,38.091c-.3-.182-.559-.493-.772-.457,0,3.81-.066,7.576.031,11.337a2.937,2.937,0,0,1-1.792,3.064c-3.335,1.718-6.609,3.557-10.077,5.435ZM90.953,83.852c.634-.084,1.761-.24,2.892-.373.386-.044.617-.093.426-.591a18.243,18.243,0,0,0-1.965-4.059,2.6,2.6,0,0,0-2.821-1.052,3.155,3.155,0,0,0-2.546,3.375c.2,1.772,1.428,2.722,4.01,2.7Zm-1.57-52.284s0,.044-.009.062c-.186,0-.368-.009-.554,0a2.891,2.891,0,0,0-2.927,2.62,3.135,3.135,0,0,0,2.045,3.317,2.8,2.8,0,0,0,3.584-1.332,22.08,22.08,0,0,0,1.637-3.5c.235-.582.027-.688-.488-.742-1.1-.116-2.191-.275-3.291-.422ZM49.47,13.872A2.956,2.956,0,0,0,52.2,9.493a21.176,21.176,0,0,0-2.253-3.268c-.364-.471-.594-.377-.914.036a20.1,20.1,0,0,0-2.249,3.273A2.951,2.951,0,0,0,49.47,13.872Zm-3.118,90.509a.908.908,0,0,0,.022.271,13.407,13.407,0,0,0,2.874,4.543c.284.35.448-.023.59-.191a17.712,17.712,0,0,0,2.386-3.451,2.706,2.706,0,0,0-.457-3.264,3.18,3.18,0,0,0-3.451-.795,3.116,3.116,0,0,0-1.96,2.887ZM8.15,31.115a18.209,18.209,0,0,0-2.914.3c-.444.058-.745.16-.5.759a27.4,27.4,0,0,0,1.69,3.6,2.692,2.692,0,0,0,2.892,1.381,2.937,2.937,0,0,0,2.519-2.043C12.665,32.838,11.086,31.061,8.15,31.115ZM8.141,83.781a.3.3,0,0,1,0-.053c.439,0,.883.027,1.322,0a2.75,2.75,0,0,0,2.6-2.4,3.1,3.1,0,0,0-1.85-3.415,2.783,2.783,0,0,0-3.522.937A18.559,18.559,0,0,0,4.863,82.6c-.24.6-.04.791.537.848.914.089,1.823.218,2.732.329Z" fill="#fff"/><path d="M78.02,3.782a11.044,11.044,0,0,1-.009,1.328A1.881,1.881,0,0,1,76.13,6.793a1.782,1.782,0,0,1-1.907-1.625A13.574,13.574,0,0,1,74.2,2.517,1.858,1.858,0,0,1,76.121.758a1.953,1.953,0,0,1,1.912,1.914c.027.369,0,.737,0,1.106H78.02Z" fill="#fff"/><path d="M78.011,16.216A8.293,8.293,0,0,1,78,17.544a1.9,1.9,0,0,1-1.952,1.612,1.747,1.747,0,0,1-1.814-1.607,13.327,13.327,0,0,1-.013-2.758A1.783,1.783,0,0,1,76.1,13.134a1.887,1.887,0,0,1,1.925,1.759,12.046,12.046,0,0,1,.009,1.328h-.018Z" fill="#fff"/><path d="M20.937,108.755a11.146,11.146,0,0,1,.009-1.217,1.879,1.879,0,0,1,1.823-1.741,1.808,1.808,0,0,1,1.978,1.67,13.887,13.887,0,0,1,.018,2.54,1.883,1.883,0,0,1-1.978,1.821,1.963,1.963,0,0,1-1.858-1.967c-.022-.369,0-.738,0-1.106Z" fill="#fff"/><path d="M20.937,96.41a11.14,11.14,0,0,1,.009-1.217,1.923,1.923,0,0,1,1.934-1.758,1.826,1.826,0,0,1,1.867,1.683,14.72,14.72,0,0,1,.022,2.54,1.84,1.84,0,0,1-1.978,1.8,1.9,1.9,0,0,1-1.858-1.945c-.022-.369,0-.737,0-1.106h0Z" fill="#fff"/><path d="M82.309,8.063a11.843,11.843,0,0,1,1.317.009,1.923,1.923,0,0,1,1.694,1.865,1.887,1.887,0,0,1-1.641,1.905,17.179,17.179,0,0,1-2.745.009,1.849,1.849,0,0,1-1.685-1.856,1.887,1.887,0,0,1,1.739-1.923c.435-.04.878-.009,1.317-.009v0Z" fill="#fff"/><path d="M16.67,104.532a11.808,11.808,0,0,1-1.317-.009,1.922,1.922,0,0,1-1.712-1.958,1.885,1.885,0,0,1,1.73-1.825,20.742,20.742,0,0,1,2.417-.018,1.88,1.88,0,0,1,1.916,1.86,1.9,1.9,0,0,1-1.934,1.959c-.364.022-.732,0-1.1,0v-.009Z" fill="#fff"/><path d="M29.08,104.532c-.444,0-.887.035-1.326-.009a1.891,1.891,0,0,1-1.734-1.945,1.846,1.846,0,0,1,1.721-1.838,19.977,19.977,0,0,1,2.435-.018,1.845,1.845,0,0,1,1.885,1.9,1.874,1.874,0,0,1-1.872,1.923c-.368.026-.736,0-1.1,0v-.009Z" fill="#fff"/><path d="M69.934,11.856a10.939,10.939,0,0,1-1.428-.009,1.835,1.835,0,0,1-1.6-1.918,1.815,1.815,0,0,1,1.672-1.852,20.009,20.009,0,0,1,2.528-.013,1.9,1.9,0,0,1,.04,3.8c-.4.036-.807,0-1.206,0v-.013Z" fill="#fff"/><path d="M49.483,64.642a7.269,7.269,0,1,1,7.31-7.189A7.309,7.309,0,0,1,49.483,64.642Zm-3.362-7.26a3.391,3.391,0,1,0,3.349-3.4,3.383,3.383,0,0,0-3.353,3.406Z" fill="#fff"/></g></g></svg>