<svg width="99" height="37" viewBox="0 0 99 37" fill="none" xmlns="http://www.w3.org/2000/svg">
<g clip-path="url(#clip0_105_543)">
<path d="M28.9657 19.7783L14.2838 23.4033L0 19.7529V36L14.2838 32.3593L28.9657 35.9716V19.7783Z" fill="#C10C1A"/>
<path d="M23.1822 31.4159L22.0855 31.2224C22.0454 31.2155 22.0151 31.1803 22.0151 31.1393V28.4606C22.0151 28.4156 22.0503 28.3785 22.0953 28.3765L22.9053 28.3384C22.9503 28.3364 22.9855 28.2993 22.9855 28.2543V27.1017C22.9855 27.0538 22.9454 27.0156 22.8975 27.0176L22.1071 27.0518C22.0591 27.0538 22.019 27.0156 22.019 26.9677V24.7221C22.019 24.6811 22.0484 24.6459 22.0885 24.639L23.1929 24.4494C23.233 24.4425 23.2624 24.4073 23.2624 24.3663V23.1179C23.2624 23.0641 23.2125 23.024 23.1607 23.0357C22.7967 23.1159 21.4653 23.4043 20.8842 23.5324C20.8461 23.5412 20.8187 23.5744 20.8187 23.6145L20.8226 32.2371C20.8226 32.2762 20.85 32.3105 20.8881 32.3193L23.1499 32.8276C23.2027 32.8393 23.2516 32.7993 23.2516 32.7455V31.4961C23.2516 31.455 23.2213 31.4198 23.1812 31.413L23.1822 31.4159Z" fill="white"/>
<path d="M12.8839 27.6609C12.8643 27.6579 12.8487 27.6433 12.8438 27.6247L12.8213 27.5318L12.1472 24.6087C12.1404 24.5784 12.1179 24.5549 12.0876 24.5461L11.3274 24.378C11.2746 24.3663 11.2257 24.4063 11.2257 24.4601V31.0757C11.2257 31.1431 11.2286 31.2829 11.2286 31.2829V31.3895C11.2286 31.4433 11.2785 31.4824 11.3304 31.4716L12.0494 31.3152C12.0876 31.3064 12.115 31.2732 12.115 31.2331V27.7723C12.115 27.7498 12.1355 27.7322 12.157 27.7352L12.1952 27.74C12.2099 27.742 12.2226 27.7528 12.2265 27.7674L13.0218 31.0219C13.0326 31.0659 13.0766 31.0933 13.1216 31.0835L13.7516 30.9447C13.7898 30.9359 13.8172 30.9027 13.8172 30.8626V30.7355L13.8181 24.99C13.8181 24.9509 13.7907 24.9167 13.7516 24.9079L13.1001 24.7661C13.0482 24.7544 12.9983 24.7945 12.9983 24.8482L12.9935 27.6208C12.9935 27.6501 12.967 27.6736 12.9377 27.6687L12.8849 27.6609H12.8839Z" fill="white"/>
<path d="M16.4712 31.3631C17.0406 31.4902 17.3546 31.0063 17.3546 30.4227V27.8456C17.3546 27.7997 17.3174 27.7616 17.2714 27.7616H16.1474C16.1014 27.7606 16.0633 27.7977 16.0633 27.8437V28.793C16.0633 28.837 16.0975 28.8741 16.1415 28.877L16.3607 28.8917L16.3499 30.058C16.3499 30.1558 16.2638 30.232 16.167 30.2213L15.7629 30.1841C15.6426 30.1675 15.5507 30.0688 15.5448 29.9475C15.5428 29.9075 15.5409 29.8605 15.5379 29.8048C15.536 29.7608 15.536 29.7178 15.536 29.6738C15.536 28.4713 15.536 26.0761 15.536 26.0761V25.8386C15.536 25.6137 15.8148 25.5707 15.8148 25.5707L16.0682 25.5404C16.1865 25.5248 16.2922 25.6167 16.2922 25.7369V25.8924L16.2981 26.5757V26.6529C16.3 26.6999 16.3391 26.737 16.3861 26.7351L17.2235 26.7067C17.2685 26.7048 17.3047 26.6676 17.3047 26.6226L17.291 25.4554C17.291 24.8062 17.0102 24.4093 16.5045 24.5256L16.0251 24.6322C16.0251 24.6322 15.5272 24.7309 15.1525 24.8189C14.5567 24.9587 14.546 25.2325 14.5313 25.8425V27.8222L14.5274 30.0629C14.5264 30.6055 14.6634 30.9652 15.1906 31.0933L16.4702 31.3631H16.4712Z" fill="white"/>
<path d="M18.192 31.7307L20.1466 32.1619C20.1975 32.1736 20.2464 32.1345 20.2464 32.0817L20.2435 30.977C20.2435 30.9369 20.2141 30.9017 20.174 30.8958L19.319 30.7629C19.2789 30.757 19.2495 30.7218 19.2495 30.6817V24.0026C19.2495 23.9508 19.2016 23.9117 19.1507 23.9224L18.191 24.1258C18.1529 24.1336 18.1255 24.1669 18.1255 24.206L18.1274 31.6496C18.1274 31.6877 18.1539 31.7219 18.192 31.7297V31.7307Z" fill="white"/>
<path d="M9.3885 31.4902C9.3885 31.5626 9.3885 31.7082 9.3885 31.7082V31.7903C9.3885 31.8441 9.4384 31.8842 9.49024 31.8725L10.3648 31.6799C10.403 31.6711 10.4304 31.6369 10.4304 31.5977V31.3915C10.4304 31.3915 10.4304 29.0471 10.4304 27.8838C10.4304 26.8181 10.4323 24.6713 10.4323 24.2578C10.4323 24.2186 10.4049 24.1844 10.3668 24.1756L9.49122 23.9811C9.4384 23.9694 9.38948 24.0094 9.38948 24.0632V31.4902H9.3885Z" fill="white"/>
<path d="M3.16081 22.585L1.80883 22.2957C1.75698 22.2849 1.70807 22.325 1.70807 22.3778V33.467C1.70807 33.5207 1.75698 33.5608 1.80981 33.5491L2.90548 33.3066C2.94363 33.2978 2.97102 33.2646 2.97102 33.2245V29.3082C2.97102 29.2642 3.00526 29.227 3.04928 29.2241L3.52766 29.1957C4.35235 29.1449 4.99801 28.4655 5.00486 27.6394L5.00975 27.0019V25.2999L5.01464 24.3487C5.01855 23.5617 4.47365 22.8783 3.70571 22.7063L3.16081 22.585ZM3.26646 23.896C3.64114 23.9772 3.91017 24.2871 3.91408 24.6693C3.91897 25.1102 3.92582 25.6714 3.9268 25.906L3.92386 27.3734C3.92093 27.6931 3.68418 27.9913 3.32222 27.9913L3.05907 28.005C3.01113 28.0079 2.97102 27.9698 2.97102 27.9219C2.97102 27.5895 2.97102 26.4036 2.97102 25.8855C2.97102 25.3859 2.97102 24.2783 2.97102 23.9351C2.97102 23.8814 3.01994 23.8423 3.07276 23.854L3.26646 23.896Z" fill="white"/>
<path d="M8.56872 24.6752C8.56872 24.0632 8.33687 23.7396 7.74697 23.6008L5.72781 23.157C5.67596 23.1452 5.62607 23.1853 5.62607 23.2391L5.62802 32.6028C5.62802 32.6565 5.67694 32.6956 5.72977 32.6849L6.6738 32.4815C6.71293 32.4737 6.74032 32.4395 6.74032 32.3994L6.73445 28.4596C6.73445 28.4136 6.77065 28.3765 6.81663 28.3755C6.88315 28.3755 6.99761 28.3745 7.18837 28.3755C7.39772 28.3775 7.53468 28.5534 7.55131 28.7451C7.56794 28.9318 7.55034 29.0872 7.55131 29.2622C7.55816 30.0717 7.5474 30.8235 7.56403 31.632L7.58164 32.1785C7.5836 32.2313 7.63251 32.2694 7.68436 32.2577L8.54622 32.0709C8.58437 32.0621 8.61176 32.0289 8.61176 31.9898L8.61372 31.0904C8.61372 31.0904 8.62057 29.6269 8.61568 28.8946C8.61274 28.4303 8.52959 28.0001 8.01502 27.7674C8.48654 27.5475 8.56285 27.1633 8.56872 26.7224V24.6742V24.6752ZM7.53175 26.8925C7.52783 27.0039 7.51512 27.0958 7.50044 27.1681C7.46914 27.3187 7.33609 27.4272 7.1825 27.4282H6.82054C6.77456 27.4301 6.73641 27.392 6.73641 27.3461C6.73641 27.0919 6.73641 26.3342 6.73641 25.9979C6.73641 25.6782 6.73641 24.9177 6.73641 24.6332C6.73641 24.5774 6.78924 24.5383 6.84304 24.553L7.14044 24.6351C7.36446 24.6977 7.52197 24.8962 7.53175 25.1278C7.55327 25.6978 7.55523 26.3225 7.5337 26.8925H7.53175Z" fill="white"/>
<path d="M27.2763 30.5742C27.2763 30.6133 27.2763 31.6994 27.2763 31.7376C27.2763 33.29 26.9681 33.7818 25.5066 33.4406C24.4148 33.1864 23.8415 33.0613 23.8415 31.3494V29.3834C23.8415 29.2505 23.9325 29.2378 24.3414 29.2456C24.7523 29.2534 25.0233 29.2564 25.0233 29.3756V31.2282C25.0233 31.9174 25.1446 31.9663 25.4948 32.0299C25.7834 32.0827 25.9497 32.0054 25.9615 31.6114C25.9585 31.3573 25.9615 30.6426 25.9615 30.4334C25.9615 28.6131 23.8552 27.7821 23.8552 25.1865C23.8552 25.1054 23.8572 24.468 23.8572 24.3917C23.8572 22.9204 24.3131 22.6701 25.5036 22.4267C26.7216 22.1774 27.2401 22.1578 27.2401 23.7005V25.994C27.2401 26.0996 27.0542 26.0879 26.6893 26.0947C26.2843 26.1025 26.0368 26.1074 26.0368 26.0018V24.3027C26.0368 23.8912 25.8881 23.7171 25.6044 23.769C25.2923 23.8257 25.1368 23.9273 25.1289 24.3096C25.1241 24.5344 25.1289 25.0369 25.1289 25.2305C25.1289 27.0997 27.2782 27.7537 27.2782 30.5752L27.2763 30.5742Z" fill="white"/>
<path d="M16.4796 23.1314C23.8441 21.758 28.961 16.0757 27.9086 10.4395C26.8561 4.80332 20.0329 1.34758 12.6684 2.7209C5.30389 4.09422 0.18695 9.77656 1.23938 15.4127C2.29181 21.0489 9.11508 24.5047 16.4796 23.1314Z" fill="white"/>
<path d="M12.1922 6.91082C12.3106 7.78384 11.9125 8.51412 11.304 8.53661C10.6916 8.56105 10.0684 7.84739 9.95298 6.96264C9.8346 6.07887 10.268 5.37009 10.8794 5.35445C11.4898 5.34076 12.0749 6.0378 12.1932 6.90984L12.1922 6.91082Z" fill="#1D1D1B"/>
<path d="M21.5152 5.99869C21.5788 6.77004 21.2012 7.35857 20.667 7.3136C20.131 7.26863 19.6193 6.58136 19.5587 5.80121C19.497 5.02303 19.9069 4.45405 20.442 4.50782C20.9752 4.56257 21.4555 5.22833 21.5162 5.99869H21.5152Z" fill="#1D1D1B"/>
<path d="M25.4127 8.3186C25.2904 8.24724 25.1867 8.33718 25.2464 8.46818C25.5154 9.04987 25.5105 9.92582 24.6203 9.92582C23.6312 9.92582 22.3213 8.66664 20.5418 8.66664C19.2808 8.66664 17.8966 9.5465 17.7714 11.4685C16.9339 10.1927 15.4665 9.32947 13.6773 9.32947C10.4392 9.32947 8.12849 13.2722 5.40987 13.2722C4.23496 13.2722 3.88571 12.2115 4.14202 11.4274C4.18311 11.3013 4.03832 11.1977 3.9356 11.2779C3.00331 12.0052 2.68243 13.2634 2.68243 14.4835C2.68243 17.7673 6.02814 20.5624 10.5145 20.5624C15.0009 20.5624 18.3798 18.001 18.5285 14.2674C19.3924 15.5178 20.8686 16.2383 22.335 16.2383C24.7445 16.2383 26.9799 14.547 26.9799 11.6885C26.9799 10.3716 26.2765 8.81915 25.4136 8.31763L25.4127 8.3186Z" fill="#1D1D1B"/>
<path d="M10.1662 0.0605751C8.40827 -0.00492565 6.87629 1.64041 6.7501 3.72666C6.74423 3.82931 6.74129 3.93587 6.74325 4.05319C6.74325 4.12847 6.80097 4.19103 6.87629 4.19983C6.88216 4.19983 6.88706 4.19983 6.89195 4.19983C6.96043 4.19983 7.02108 4.15291 7.03673 4.08447C7.42413 2.40101 8.98448 1.22786 10.7415 1.2914C11.1455 1.30607 11.5388 1.38721 11.9095 1.53092C12.021 1.57394 12.1423 1.53483 12.2138 1.43316C12.294 1.3178 12.2871 1.1604 12.1962 1.05775C11.6532 0.442826 10.9322 0.0889262 10.1662 0.0605751Z" fill="#1D1D1B"/>
<path d="M22.4015 2.54376C22.3761 2.44013 22.3526 2.35606 22.3272 2.27687C22.0317 1.35693 21.4379 0.615889 20.6964 0.244392C20.1642 -0.0234766 19.6115 -0.0713802 19.0998 0.103614C18.5765 0.282519 18.1411 0.693121 17.8741 1.25819C17.8173 1.37844 17.8496 1.52019 17.9513 1.60329C18.0492 1.68248 18.1822 1.68443 18.282 1.60915C18.4923 1.4498 18.7242 1.32662 18.9707 1.24157C20.1877 0.826078 21.5132 1.41656 22.1237 2.64543C22.1491 2.69725 22.2019 2.72853 22.2567 2.72853C22.2734 2.72853 22.291 2.7256 22.3076 2.71973C22.379 2.69334 22.4191 2.61806 22.4005 2.54376H22.4015Z" fill="#1D1D1B"/>
<path d="M29.7582 34.7848C29.8599 34.7848 29.9577 34.8102 30.0516 34.8611C30.1456 34.9119 30.2189 34.9852 30.2727 35.0801C30.3265 35.1749 30.3529 35.2746 30.3529 35.3792C30.3529 35.4838 30.3265 35.5816 30.2737 35.6754C30.2209 35.7693 30.1475 35.8426 30.0536 35.8954C29.9597 35.9482 29.8609 35.9746 29.7572 35.9746C29.6535 35.9746 29.5547 35.9482 29.4608 35.8954C29.3668 35.8426 29.2935 35.7693 29.2406 35.6754C29.1878 35.5816 29.1614 35.4828 29.1614 35.3792C29.1614 35.2756 29.1888 35.1759 29.2416 35.0801C29.2954 34.9852 29.3688 34.9119 29.4627 34.8611C29.5566 34.8102 29.6545 34.7848 29.7562 34.7848H29.7582ZM29.7582 34.9012C29.676 34.9012 29.5977 34.9217 29.5234 34.9627C29.448 35.0038 29.3893 35.0625 29.3463 35.1387C29.3033 35.215 29.2817 35.2951 29.2817 35.3792C29.2817 35.4633 29.3023 35.5415 29.3453 35.6178C29.3884 35.694 29.4461 35.7527 29.5214 35.7947C29.5967 35.8367 29.676 35.8583 29.7591 35.8583C29.8423 35.8583 29.9215 35.8367 29.9969 35.7947C30.0722 35.7527 30.1309 35.693 30.1729 35.6178C30.215 35.5425 30.2365 35.4633 30.2365 35.3792C30.2365 35.2951 30.215 35.215 30.172 35.1387C30.1289 35.0625 30.0692 35.0038 29.9939 34.9627C29.9186 34.9217 29.8403 34.9012 29.7582 34.9012ZM29.4891 35.6969V35.0664H29.6173C29.7376 35.0664 29.8051 35.0664 29.8188 35.0683C29.8619 35.0722 29.8941 35.0801 29.9176 35.0937C29.9411 35.1065 29.9607 35.127 29.9763 35.1544C29.992 35.1817 29.9998 35.212 29.9998 35.2443C29.9998 35.2903 29.9851 35.3284 29.9548 35.3606C29.9254 35.3929 29.8834 35.4134 29.8296 35.4203C29.8491 35.4271 29.8638 35.4349 29.8736 35.4437C29.8834 35.4525 29.898 35.4682 29.9166 35.4926C29.9215 35.4985 29.9372 35.5249 29.9636 35.5699L30.0379 35.6969H29.8795L29.8266 35.5943C29.7904 35.5259 29.7611 35.4819 29.7386 35.4643C29.7151 35.4467 29.6858 35.4379 29.6505 35.4379H29.6173V35.6969H29.4891ZM29.6173 35.3382H29.6691C29.7435 35.3382 29.7895 35.3352 29.8071 35.3294C29.8247 35.3235 29.8394 35.3137 29.8491 35.2991C29.8589 35.2844 29.8648 35.2687 29.8648 35.2502C29.8648 35.2316 29.8599 35.2169 29.8501 35.2032C29.8403 35.1896 29.8257 35.1798 29.8071 35.1739C29.7885 35.168 29.7425 35.1651 29.6701 35.1651H29.6183V35.3372L29.6173 35.3382Z" fill="white"/>
</g>
<path d="M44.8025 9C44.428 9 44.2675 8.8395 44.2675 8.465V7.5876C44.2675 7.1596 44.428 6.8707 44.642 6.5711L46.9425 3.3076H44.9095C44.535 3.3076 44.3745 3.1471 44.3745 2.7726V1.6598C44.3745 1.2853 44.535 1.1248 44.9095 1.1248H49.5426C49.9171 1.1248 50.0776 1.2853 50.0776 1.6598V2.5372C50.0776 2.9652 49.9171 3.2541 49.7031 3.5537L47.4026 6.8172H49.8101C50.1846 6.8172 50.3451 6.9777 50.3451 7.3522V8.465C50.3451 8.8395 50.1846 9 49.8101 9H44.8025Z" fill="white"/>
<path d="M51.6309 9C51.2564 9 51.0959 8.8395 51.0959 8.465V4.2492C51.0959 3.8747 51.3634 3.8319 51.6202 3.8854C51.8449 3.9282 52.0482 3.9496 52.2836 3.9496C52.519 3.9496 52.7223 3.9282 52.947 3.8854C53.2038 3.8319 53.4713 3.8747 53.4713 4.2492V8.465C53.4713 8.8395 53.3108 9 52.9363 9H51.6309ZM52.2836 3.4039C51.5132 3.4039 50.8498 3.0936 50.8498 2.1948C50.8498 1.296 51.5239 0.996399 52.2943 0.996399C53.0647 0.996399 53.7281 1.296 53.7281 2.1948C53.7281 3.0936 53.054 3.4039 52.2836 3.4039Z" fill="white"/>
<path d="M54.9642 9C54.5897 9 54.4292 8.8395 54.4292 8.465V3.5216C54.4292 3.1471 54.5897 2.9866 54.9642 2.9866H55.9807C56.3552 2.9866 56.5157 3.1364 56.5157 3.5109C57.0293 3.0936 57.7034 2.8582 58.2598 2.8582C58.9981 2.8582 59.6508 3.0508 60.0681 3.6607C60.8278 3.0508 61.3949 2.8582 62.0048 2.8582C63.2674 2.8582 64.2946 3.3932 64.2946 5.6723V8.465C64.2946 8.8395 64.1341 9 63.7596 9H62.4542C62.0797 9 61.9192 8.8395 61.9192 8.465V5.9505C61.9192 5.3085 61.8871 4.8484 61.32 4.8484C61.0846 4.8484 60.8064 4.9661 60.5282 5.148C60.5389 5.3192 60.5496 5.4904 60.5496 5.6723V8.465C60.5496 8.8395 60.3891 9 60.0146 9H58.7092C58.3347 9 58.1742 8.8395 58.1742 8.465V5.9505C58.1742 5.3085 58.1421 4.8484 57.575 4.8484C57.3396 4.8484 57.0828 4.9554 56.8046 5.1373V8.465C56.8046 8.8395 56.6441 9 56.2696 9H54.9642Z" fill="white"/>
<path d="M68.1769 9.1284C66.2188 9.1284 64.9883 8.3794 64.9883 5.9933C64.9883 3.6072 66.3579 2.8582 68.1769 2.8582C70.135 2.8582 71.3655 3.6072 71.3655 5.9933C71.3655 8.3794 69.9959 9.1284 68.1769 9.1284ZM68.1769 7.1703C68.8403 7.1703 68.958 6.7102 68.958 5.9933C68.958 5.2764 68.8403 4.8163 68.1769 4.8163C67.5135 4.8163 67.3958 5.2764 67.3958 5.9933C67.3958 6.7102 67.5135 7.1703 68.1769 7.1703Z" fill="white"/>
<path d="M74.356 9C73.821 9 73.6605 8.8181 73.4679 8.5078C72.3337 6.6674 71.6382 4.2599 71.6382 3.436C71.6382 3.0936 71.8201 2.9866 72.0876 2.9866H73.3181C73.7996 2.9866 73.9922 3.1257 74.0564 3.4788C74.2169 4.4204 74.4202 5.3834 74.7091 6.2287C75.0301 5.3834 75.319 4.4204 75.5009 3.4788C75.5651 3.1257 75.7577 2.9866 76.2392 2.9866H76.9989C77.4804 2.9866 77.673 3.1257 77.7372 3.4788C77.9084 4.4632 78.1545 5.4797 78.4755 6.3571C78.7858 5.4904 78.9891 4.4739 79.1817 3.4788C79.2459 3.1257 79.4385 2.9866 79.92 2.9866H81.0435C81.311 2.9866 81.4929 3.0936 81.4929 3.436C81.4929 4.2599 80.7974 6.6674 79.6632 8.5078C79.4706 8.8181 79.3101 9 78.7751 9H78.3043C77.7693 9 77.5981 8.8181 77.4162 8.5078C77.0524 7.9086 76.7742 7.2345 76.5495 6.5925C76.3248 7.2345 76.0359 7.9086 75.6828 8.5078C75.5009 8.8181 75.3297 9 74.7947 9H74.356Z" fill="white"/>
<path d="M86.4459 9C86.0714 9 85.9109 8.8074 85.9109 8.4329C85.5043 8.8074 84.8623 9.1284 84.0812 9.1284C82.8935 9.1284 81.7593 8.4115 81.7593 6.0896C81.7593 3.7356 83.268 2.8582 84.5627 2.8582C85.3224 2.8582 85.8574 3.115 86.2747 3.4039C86.2747 3.1043 86.4031 2.9866 86.7027 2.9866H87.4624C87.8369 2.9866 87.9974 3.1471 87.9974 3.5216V8.465C87.9974 8.8395 87.8369 9 87.4624 9H86.4459ZM84.7874 7.2131C85.0656 7.2131 85.3545 7.0954 85.6113 6.9456V4.9554C85.4508 4.9126 85.2475 4.8591 85.0763 4.8591C84.4771 4.8591 84.1668 5.2336 84.1668 6.0361C84.1668 6.753 84.2952 7.2131 84.7874 7.2131Z" fill="white"/>
<path d="M44.8025 22C44.428 22 44.2675 21.8395 44.2675 21.465V20.5876C44.2675 20.1596 44.428 19.8707 44.642 19.5711L46.9425 16.3076H44.9095C44.535 16.3076 44.3745 16.1471 44.3745 15.7726V14.6598C44.3745 14.2853 44.535 14.1248 44.9095 14.1248H49.5426C49.9171 14.1248 50.0776 14.2853 50.0776 14.6598V15.5372C50.0776 15.9652 49.9171 16.2541 49.7031 16.5537L47.4026 19.8172H49.8101C50.1846 19.8172 50.3451 19.9777 50.3451 20.3522V21.465C50.3451 21.8395 50.1846 22 49.8101 22H44.8025Z" fill="white"/>
<path d="M55.5685 22C55.194 22 55.0335 21.8074 55.0335 21.4329C54.6269 21.8074 53.9849 22.1284 53.2038 22.1284C52.0161 22.1284 50.8819 21.4115 50.8819 19.0896C50.8819 16.7356 52.3906 15.8582 53.6853 15.8582C54.445 15.8582 54.98 16.115 55.3973 16.4039C55.3973 16.1043 55.5257 15.9866 55.8253 15.9866H56.585C56.9595 15.9866 57.12 16.1471 57.12 16.5216V21.465C57.12 21.8395 56.9595 22 56.585 22H55.5685ZM53.91 20.2131C54.1882 20.2131 54.4771 20.0954 54.7339 19.9456V17.9554C54.5734 17.9126 54.3701 17.8591 54.1989 17.8591C53.5997 17.8591 53.2894 18.2336 53.2894 19.0361C53.2894 19.753 53.4178 20.2131 53.91 20.2131Z" fill="white"/>
<path d="M58.6214 22C58.2469 22 58.0864 21.8395 58.0864 21.465V14.6598C58.0864 14.2853 58.2469 14.1248 58.6214 14.1248H59.9268C60.3013 14.1248 60.4618 14.2853 60.4618 14.6598V16.329C60.8577 16.0615 61.382 15.8582 61.9919 15.8582C63.1796 15.8582 64.3138 16.5751 64.3138 18.897C64.3138 21.251 62.8051 22.1284 61.5104 22.1284C60.6865 22.1284 60.098 21.7967 59.7984 21.5827C59.7984 21.8823 59.67 22 59.3704 22H58.6214ZM61.2857 17.7735C60.9968 17.7735 60.7079 17.8912 60.4618 18.0517V20.0419C60.6223 20.0847 60.8256 20.1275 60.9968 20.1275C61.596 20.1275 61.9063 19.753 61.9063 18.9505C61.9063 18.2336 61.7779 17.7735 61.2857 17.7735Z" fill="white"/>
<path d="M69.5391 22C69.1646 22 69.0041 21.8074 69.0041 21.4329C68.5975 21.8074 67.9555 22.1284 67.1744 22.1284C65.9867 22.1284 64.8525 21.4115 64.8525 19.0896C64.8525 16.7356 66.3612 15.8582 67.6559 15.8582C68.4156 15.8582 68.9506 16.115 69.3679 16.4039C69.3679 16.1043 69.4963 15.9866 69.7959 15.9866H70.5556C70.9301 15.9866 71.0906 16.1471 71.0906 16.5216V21.465C71.0906 21.8395 70.9301 22 70.5556 22H69.5391ZM67.8806 20.2131C68.1588 20.2131 68.4477 20.0954 68.7045 19.9456V17.9554C68.544 17.9126 68.3407 17.8591 68.1695 17.8591C67.5703 17.8591 67.26 18.2336 67.26 19.0361C67.26 19.753 67.3884 20.2131 67.8806 20.2131Z" fill="white"/>
<path d="M74.2933 22C73.7583 22 73.5978 21.8181 73.4052 21.5078C72.271 19.6674 71.5755 17.2599 71.5755 16.436C71.5755 16.0936 71.7574 15.9866 72.0249 15.9866H73.2554C73.7369 15.9866 73.9295 16.1257 73.9937 16.4788C74.1542 17.4204 74.3575 18.3834 74.6464 19.2287C74.9674 18.3834 75.2563 17.4204 75.4382 16.4788C75.5024 16.1257 75.695 15.9866 76.1765 15.9866H76.9362C77.4177 15.9866 77.6103 16.1257 77.6745 16.4788C77.8457 17.4632 78.0918 18.4797 78.4128 19.3571C78.7231 18.4904 78.9264 17.4739 79.119 16.4788C79.1832 16.1257 79.3758 15.9866 79.8573 15.9866H80.9808C81.2483 15.9866 81.4302 16.0936 81.4302 16.436C81.4302 17.2599 80.7347 19.6674 79.6005 21.5078C79.4079 21.8181 79.2474 22 78.7124 22H78.2416C77.7066 22 77.5354 21.8181 77.3535 21.5078C76.9897 20.9086 76.7115 20.2345 76.4868 19.5925C76.2621 20.2345 75.9732 20.9086 75.6201 21.5078C75.4382 21.8181 75.267 22 74.732 22H74.2933Z" fill="white"/>
<path d="M86.3832 22C86.0087 22 85.8482 21.8074 85.8482 21.4329C85.4416 21.8074 84.7996 22.1284 84.0185 22.1284C82.8308 22.1284 81.6966 21.4115 81.6966 19.0896C81.6966 16.7356 83.2053 15.8582 84.5 15.8582C85.2597 15.8582 85.7947 16.115 86.212 16.4039C86.212 16.1043 86.3404 15.9866 86.64 15.9866H87.3997C87.7742 15.9866 87.9347 16.1471 87.9347 16.5216V21.465C87.9347 21.8395 87.7742 22 87.3997 22H86.3832ZM84.7247 20.2131C85.0029 20.2131 85.2918 20.0954 85.5486 19.9456V17.9554C85.3881 17.9126 85.1848 17.8591 85.0136 17.8591C84.4144 17.8591 84.1041 18.2336 84.1041 19.0361C84.1041 19.753 84.2325 20.2131 84.7247 20.2131Z" fill="white"/>
<path d="M44.8025 35C44.428 35 44.2675 34.8395 44.2675 34.465V33.6946C44.2675 33.3201 44.3852 33.0419 44.642 32.7851L46.568 30.9554H44.9095C44.535 30.9554 44.3745 30.7949 44.3745 30.4204V29.5216C44.3745 29.1471 44.535 28.9866 44.9095 28.9866H49.1253C49.4998 28.9866 49.6603 29.1471 49.6603 29.5216V30.292C49.6603 30.6665 49.5426 30.9447 49.2858 31.2015L47.3598 33.0312H49.2323C49.6068 33.0312 49.7673 33.1917 49.7673 33.5662V34.465C49.7673 34.8395 49.6068 35 49.2323 35H44.8025Z" fill="white"/>
<path d="M53.7872 35C53.4127 35 53.2522 34.8395 53.2522 34.465V27.6598C53.2522 27.2853 53.4127 27.1248 53.7872 27.1248H56.5157C58.2919 27.1248 59.9718 27.6705 59.9718 29.9603C59.9718 32.1966 58.2919 32.6888 56.5157 32.6888H55.7025V34.465C55.7025 34.8395 55.542 35 55.1675 35H53.7872ZM55.7025 29.2541V30.6665H56.5478C57.2112 30.6665 57.4145 30.3562 57.4145 29.9603C57.4145 29.5644 57.2112 29.2541 56.5478 29.2541H55.7025Z" fill="white"/>
<path d="M64.3563 31.3406C64.0139 31.3406 63.4789 31.2229 63.1472 31.148V34.465C63.1472 34.8395 62.9867 35 62.6122 35H61.3068C60.9323 35 60.7718 34.8395 60.7718 34.465V29.5216C60.7718 29.1471 60.9323 28.9866 61.3068 28.9866H62.3233C62.6978 28.9866 62.8583 29.1364 62.8583 29.5109V29.8961C63.083 29.1792 63.9497 28.8582 64.3563 28.8582C64.7308 28.8582 64.8913 29.0187 64.8913 29.3932V30.8056C64.8913 31.1801 64.7308 31.3406 64.3563 31.3406Z" fill="white"/>
<path d="M66.0717 35C65.6972 35 65.5367 34.8395 65.5367 34.465V30.2492C65.5367 29.8747 65.8042 29.8319 66.061 29.8854C66.2857 29.9282 66.489 29.9496 66.7244 29.9496C66.9598 29.9496 67.1631 29.9282 67.3878 29.8854C67.6446 29.8319 67.9121 29.8747 67.9121 30.2492V34.465C67.9121 34.8395 67.7516 35 67.3771 35H66.0717ZM66.7244 29.4039C65.954 29.4039 65.2906 29.0936 65.2906 28.1948C65.2906 27.296 65.9647 26.9964 66.7351 26.9964C67.5055 26.9964 68.1689 27.296 68.1689 28.1948C68.1689 29.0936 67.4948 29.4039 66.7244 29.4039Z" fill="white"/>
<path d="M69.405 35C69.0305 35 68.87 34.8395 68.87 34.465V29.5216C68.87 29.1471 69.0305 28.9866 69.405 28.9866H70.4215C70.796 28.9866 70.9565 29.1364 70.9565 29.5109C71.4701 29.0936 72.1442 28.8582 72.7006 28.8582C73.9632 28.8582 74.9904 29.3932 74.9904 31.6723V34.465C74.9904 34.8395 74.8299 35 74.4554 35H73.15C72.7755 35 72.615 34.8395 72.615 34.465V31.9505C72.615 31.3085 72.5829 30.8484 72.0158 30.8484C71.7804 30.8484 71.5236 30.9554 71.2454 31.1373V34.465C71.2454 34.8395 71.0849 35 70.7104 35H69.405Z" fill="white"/>
<path d="M78.0102 34.6148C76.8225 34.6148 75.6883 34.1547 75.6883 31.8328C75.6883 29.4788 77.197 28.8582 78.4917 28.8582C79.2942 28.8582 79.872 29.1685 80.2037 29.4039C80.2037 29.1043 80.3321 28.9866 80.6317 28.9866H81.3807C81.7552 28.9866 81.9157 29.1471 81.9157 29.5216V34.0156C81.9157 36.4017 80.2893 36.9902 78.7057 36.9902C77.7427 36.9902 77.2826 36.9474 76.8332 36.8297C76.4801 36.7334 76.3196 36.5301 76.3196 36.1556V35.4708C76.3196 35.0963 76.448 34.9679 76.8118 35.0642C77.3468 35.2033 77.6999 35.2461 78.2991 35.2461C79.1872 35.2461 79.5403 34.8609 79.5403 34.2403V34.0584C79.1444 34.3473 78.6201 34.6148 78.0102 34.6148ZM78.7164 32.6995C78.9946 32.6995 79.2835 32.5604 79.5403 32.3892V30.9554C79.3798 30.9126 79.1765 30.8591 79.0053 30.8591C78.4061 30.8591 78.0958 31.1266 78.0958 31.7793C78.0958 32.3892 78.2242 32.6995 78.7164 32.6995Z" fill="white"/>
<path d="M84.787 35.1284C83.2248 35.1284 82.8824 34.4329 82.8824 33.0312V27.6598C82.8824 27.2853 83.0429 27.1248 83.4174 27.1248H84.7228C85.0973 27.1248 85.2578 27.2853 85.2578 27.6598V32.7958C85.2578 33.0205 85.3434 33.1596 85.5895 33.1596C85.8891 33.1596 86.0175 33.2773 86.0175 33.6197V34.4222C86.0175 34.7967 85.857 34.9679 85.4932 35.0428C85.2471 35.0963 85.0438 35.1284 84.787 35.1284Z" fill="white"/>
<path d="M89.6531 35.1284C87.6308 35.1284 86.3361 34.3794 86.3361 31.9933C86.3361 29.5109 87.9732 28.8582 89.6317 28.8582C91.7824 28.8582 92.6063 29.8533 92.6063 30.9661C92.6063 32.2073 91.7717 32.4106 90.3058 32.4962L88.765 32.5925C88.8506 33.0312 89.1823 33.2238 89.9848 33.2238C90.6054 33.2238 91.2688 33.0526 91.7289 32.8386C92.0713 32.6781 92.3816 32.7744 92.3816 33.1489V33.9621C92.3816 34.4008 92.1248 34.6148 91.7824 34.7432C91.119 35 90.2951 35.1284 89.6531 35.1284ZM89.5996 30.506C89.0325 30.506 88.8078 30.8805 88.7543 31.3941L89.4284 31.3513C89.9848 31.3192 90.2095 31.1801 90.2095 30.9126C90.2095 30.613 89.9313 30.506 89.5996 30.506Z" fill="white"/>
<path d="M95.4818 35.1284C94.6686 35.1284 93.9945 34.9893 93.5558 34.8609C93.192 34.7539 93.0315 34.5827 93.0315 34.2082V33.4913C93.0315 33.1168 93.2027 32.9563 93.5558 33.0526C93.9089 33.1489 94.6686 33.3415 95.332 33.3415C95.8777 33.3415 96.0489 33.2666 96.0489 33.1168C96.0489 32.9777 95.7386 32.9242 95.3106 32.8493C94.4439 32.6995 93.1385 32.4213 93.1385 30.9233C93.1385 29.6072 94.3262 28.8582 96.1559 28.8582C96.8728 28.8582 97.4613 28.9759 97.7823 29.0722C98.1461 29.1792 98.3066 29.329 98.3066 29.7035V30.4204C98.3066 30.7949 98.1461 30.9447 97.7823 30.8591C97.5255 30.7949 97.0761 30.6451 96.3057 30.6451C95.7386 30.6451 95.5888 30.7307 95.5888 30.8591C95.5888 31.0624 95.9954 31.0945 96.509 31.1801C97.365 31.3192 98.4992 31.5974 98.4992 33.0633C98.4992 34.3794 97.3115 35.1284 95.4818 35.1284Z" fill="white"/>
<defs>
<clipPath id="clip0_105_543">
<rect width="30.3529" height="36" fill="white"/>
</clipPath>
</defs>
</svg>
