<?xml version="1.0" encoding="UTF-8" standalone="no"?>
<svg
   width="15"
   height="14"
   viewBox="0 0 15 14"
   fill="none"
   version="1.1"
   id="svg1"
   sodipodi:docname="star.svg"
   inkscape:version="1.3 (0e150ed, 2023-07-21)"
   xmlns:inkscape="http://www.inkscape.org/namespaces/inkscape"
   xmlns:sodipodi="http://sodipodi.sourceforge.net/DTD/sodipodi-0.dtd"
   xmlns="http://www.w3.org/2000/svg"
   xmlns:svg="http://www.w3.org/2000/svg">
  <defs
     id="defs1" />
  <sodipodi:namedview
     id="namedview1"
     pagecolor="#ffffff"
     bordercolor="#000000"
     borderopacity="0.25"
     inkscape:showpageshadow="2"
     inkscape:pageopacity="0.0"
     inkscape:pagecheckerboard="0"
     inkscape:deskcolor="#d1d1d1"
     inkscape:zoom="16.857143"
     inkscape:cx="7.5042373"
     inkscape:cy="6.970339"
     inkscape:window-width="1680"
     inkscape:window-height="950"
     inkscape:window-x="0"
     inkscape:window-y="25"
     inkscape:window-maximized="1"
     inkscape:current-layer="svg1" />
  <path
     d="M 5.4229463,11.123475 4.3702482,10.35275 C 3.8438991,9.957989 3.7875046,9.5820246 4.2762573,9.1120697 L 5.7237172,7.7021869 3.6747156,7.4202141 C 3.0355787,7.3262233 2.8475969,6.987856 3.0543769,6.3675161 L 3.4491373,5.1268362 c 0.20678,-0.62034 0.5639455,-0.7895236 1.146689,-0.4699546 L 6.3816535,5.5967908 6.024488,3.5665872 C 5.911699,2.9274484 6.1748735,2.6454751 6.8328097,2.6454751 h 1.2970745 c 0.6579364,0 0.9211109,0.2819733 0.8083218,0.9399103 L 8.5998387,5.5779925 10.423289,4.6192853 c 0.563945,-0.3195691 0.92111,-0.1503854 1.12789,0.4699545 l 0.394762,1.2406799 c 0.20678,0.62034 0.01879,0.9587072 -0.639137,1.0526982 l -1.9926075,0.3007708 1.4850555,1.428681 c 0.469955,0.451157 0.41356,0.8271213 -0.112789,1.2218823 L 9.6337655,11.104678 C 9.1073896,11.480641 8.731426,11.405449 8.4306552,10.803907 L 7.5283425,8.9992611 6.6072316,10.841503 C 6.325259,11.424247 5.9492954,11.499439 5.4229463,11.123475 Z"
     fill="white"
     id="path1"
     style="fill:#ffffff;fill-opacity:1;stroke-width:0.671363" />
</svg>
